<svg width="50" height="50" viewBox="0 0 50 50" fill="none" xmlns="http://www.w3.org/2000/svg">
<path d="M18.8653 27.7044C19.043 24.5355 20.5923 21.7355 22.9396 19.757C25.2367 17.812 28.3218 16.6216 31.7087 16.6216C35.0788 16.6216 38.1639 17.8103 40.461 19.757C42.8084 21.7355 44.3509 24.5355 44.5353 27.7044C44.7131 30.9572 43.4036 33.992 41.1149 36.2388C38.7675 38.5191 35.4477 39.961 31.7087 39.961C27.9697 39.961 24.6331 38.5291 22.3025 36.2388C20.0054 33.992 18.6976 30.974 18.8821 27.7212L18.8653 27.7044Z" fill="white"/>
<path d="M25.8903 27.3162C25.9816 25.6877 26.7778 24.2488 27.984 23.2321C29.1645 22.2326 30.7499 21.6208 32.4904 21.6208C34.2222 21.6208 35.8076 22.2317 36.9881 23.2321C38.1944 24.2488 38.9871 25.6877 39.0818 27.3162C39.1732 28.9878 38.5002 30.5473 37.3241 31.7019C36.1178 32.8737 34.4118 33.6147 32.4904 33.6147C30.5689 33.6147 28.8543 32.8789 27.6566 31.7019C26.4762 30.5473 25.8041 28.9964 25.8989 27.3248L25.8903 27.3162Z" fill="#265787"/>
<path d="M15.5507 30.7627C15.5619 31.4004 15.7653 32.6411 16.0703 33.6061C16.7114 35.6568 17.8022 37.5524 19.31 39.2153C20.861 40.93 22.7738 42.3086 24.9796 43.2909C27.2973 44.3162 29.8133 44.8418 32.424 44.8418C35.0348 44.8383 37.5507 44.3041 39.8685 43.265C42.0743 42.2741 43.9871 40.8955 45.5381 39.1723C47.0545 37.4921 48.1402 35.5965 48.7778 33.5458C49.1009 32.5119 49.3051 31.4607 49.3869 30.4095C49.4671 29.3755 49.4335 28.333 49.2862 27.2904C48.9984 25.2655 48.2953 23.3613 47.2182 21.6381C46.236 20.0441 44.9607 18.6568 43.4443 17.485L43.4478 17.4824L28.1969 5.76428C28.1831 5.75394 28.1719 5.74273 28.1573 5.73325C27.1578 4.96467 25.469 4.96726 24.3747 5.73756C23.2632 6.51647 23.134 7.80547 24.1248 8.6154L24.1205 8.61971L30.488 13.7981L11.1013 13.8188H11.0754C9.47281 13.8205 7.93049 14.87 7.62892 16.2055C7.31529 17.5583 8.40438 18.687 10.0759 18.687L10.0734 18.693L19.8959 18.6741L2.3187 32.1155C2.2963 32.1319 2.27217 32.1491 2.25149 32.1655C0.597161 33.4321 0.0629484 35.5431 1.10552 36.87C2.16533 38.2227 4.41418 38.2313 6.08574 36.8777L15.6498 29.0369C15.6498 29.0369 15.5103 30.0967 15.5215 30.7257L15.5507 30.7627ZM40.1934 34.304C38.2202 36.3116 35.4544 37.4576 32.4732 37.4576C29.4833 37.4628 26.7175 36.3375 24.7443 34.3299C23.7793 33.3476 23.0728 32.2275 22.6333 31.0298C22.2051 29.8494 22.0388 28.6001 22.1491 27.3421C22.2534 26.1099 22.6204 24.9295 23.2089 23.8697C23.7845 22.8271 24.5789 21.8794 25.5525 21.078C27.474 19.5185 29.9124 18.6655 32.4628 18.6655C35.0219 18.662 37.4603 19.5004 39.3817 21.0608C40.3553 21.8569 41.148 22.8013 41.7253 23.8439C42.3138 24.9037 42.6818 26.0755 42.7851 27.3162C42.8937 28.5742 42.7274 29.8236 42.2992 31.004C41.8615 32.2103 41.1532 33.3304 40.1882 34.3127L40.1934 34.304Z" fill="#EA7600"/>
</svg>
