<svg width="50" height="50" viewBox="0 0 50 50" fill="none" xmlns="http://www.w3.org/2000/svg">
<g clip-path="url(#clip0_1035_2531)">
<path fill-rule="evenodd" clip-rule="evenodd" d="M37.8949 37.2798C31.885 37.0491 24.5294 38.1457 19.3903 36.0769C10.1954 32.3756 8.87631 15.9425 19.43 11.2278C24.0248 9.17517 32.157 10.2745 37.8189 10.0411L37.8908 17.1576L24.9932 17.1413C21.2889 17.2601 18.8856 19.9846 18.9896 23.8069C19.0929 27.6208 21.3669 30.1217 25.1891 30.2632C29.3209 30.416 33.8128 30.2791 37.9793 30.2643L37.8949 37.2798ZM17.0501 0H50V33.0123C49.9357 33.2907 49.7882 33.5404 49.4768 33.8521L33.8517 49.4768C33.5404 49.7882 33.2907 49.9357 33.0123 50H0V16.9877C0.0643101 16.7093 0.211845 16.4596 0.523182 16.1479L14.5995 2.09954C16.1982 0.501241 16.3942 0.0896559 17.0501 0Z" fill="#00ABE5"/>
<path fill-rule="evenodd" clip-rule="evenodd" d="M37.8949 37.2798L37.9797 30.2643C33.8128 30.2795 29.3209 30.4156 25.1891 30.2632C21.3669 30.1217 19.0925 27.6208 18.9893 23.8068C18.8856 19.9845 21.2889 17.2601 24.9928 17.1413L37.8912 17.1575L37.8193 10.0411C32.157 10.2745 24.0248 9.17476 19.4304 11.2278C8.87593 15.9425 10.1954 32.3756 19.3903 36.0772C24.529 38.1457 31.885 37.049 37.8949 37.2798Z" fill="#FEFEFE"/>
</g>
<defs>
<clipPath id="clip0_1035_2531">
<rect width="50" height="50" fill="white"/>
</clipPath>
</defs>
</svg>
