<svg width="50" height="50" viewBox="0 0 50 50" fill="none" xmlns="http://www.w3.org/2000/svg">
<g clip-path="url(#clip0_1035_4228)">
<mask id="mask0_1035_4228" style="mask-type:luminance" maskUnits="userSpaceOnUse" x="0" y="0" width="50" height="50">
<path d="M49.5 0.5V49.5H0.5V0.5H49.5Z" fill="white" stroke="white"/>
</mask>
<g mask="url(#mask0_1035_4228)">
<path d="M24.9999 1.51343C37.9619 1.51343 48.4861 12.0377 48.4862 24.9998C48.4862 37.9618 37.962 48.4861 24.9999 48.4861C12.0379 48.486 1.51355 37.9618 1.51355 24.9998C1.51363 12.0378 12.0379 1.51351 24.9999 1.51343Z" fill="black" stroke="white" stroke-width="0.5"/>
<path d="M18.5839 22.2466L18.5455 35.6632L26.72 35.7198" fill="black"/>
<path d="M18.5839 22.2466L18.5455 35.6632L26.72 35.7198" stroke="white" stroke-width="2.04864"/>
<path d="M6.55493 23.7127L13.4933 23.7036L6.55493 23.7127Z" fill="black"/>
<path d="M6.55493 23.7127L13.4933 23.7036" stroke="white" stroke-width="2.04864"/>
<path d="M28.6061 23.7803H35.8239" stroke="white" stroke-width="2.04864"/>
<path d="M31.935 14.4026C35.2856 14.4026 38.0061 17.123 38.0061 20.4736C38.0061 23.8243 35.2856 26.5447 31.935 26.5447C28.5844 26.5447 25.864 23.8243 25.864 20.4736C25.864 17.123 28.5844 14.4026 31.935 14.4026Z" fill="black"/>
<path d="M31.935 14.4026C35.2856 14.4026 38.0061 17.123 38.0061 20.4736C38.0061 23.8243 35.2856 26.5447 31.935 26.5447C28.5844 26.5447 25.864 23.8243 25.864 20.4736C25.864 17.123 28.5844 14.4026 31.935 14.4026Z" stroke="white" stroke-width="1.94621"/>
</g>
</g>
<defs>
<clipPath id="clip0_1035_4228">
<rect width="50" height="50" fill="white"/>
</clipPath>
</defs>
</svg>
