<svg width="50" height="50" viewBox="0 0 50 50" fill="none" xmlns="http://www.w3.org/2000/svg">
<g clip-path="url(#clip0_1035_4186)">
<path d="M6.2199 39.7439C3.96962 39.7487 1.89077 38.5424 0.778467 36.5863C-0.317801 34.6422 -0.252062 32.2518 0.949402 30.3709L12.1551 12.7741C13.3228 10.8487 15.436 9.70047 17.6868 9.76849C19.9359 9.82239 21.9816 11.0834 23.0404 13.0685C24.085 15.0437 23.9544 17.4202 22.7032 19.2744L11.5046 36.8712C10.3504 38.6697 8.3569 39.7533 6.2199 39.7439Z" fill="#F62B54"/>
<path d="M25.4406 39.7438C23.1804 39.7438 21.1007 38.5354 20.0086 36.5934C18.9148 34.6545 18.9806 32.2702 20.1796 30.3946L31.3639 12.8382C32.5147 10.8851 34.6342 9.70994 36.9003 9.76844C39.1795 9.8183 41.2449 11.0932 42.2895 13.0874C43.327 15.0817 43.1751 17.4724 41.8859 19.3218L30.7039 36.8782C29.5534 38.669 27.5691 39.7493 25.4406 39.7438Z" fill="#FFCC00"/>
<path d="M44.2316 39.891C47.4177 39.891 50.0006 37.3624 50.0006 34.2431C50.0006 31.1238 47.4177 28.5951 44.2316 28.5951C41.0454 28.5951 38.4625 31.1238 38.4625 34.2431C38.4625 37.3624 41.0454 39.891 44.2316 39.891Z" fill="#00CA72"/>
</g>
<defs>
<clipPath id="clip0_1035_4186">
<rect width="50" height="50" fill="white"/>
</clipPath>
</defs>
</svg>
