<svg width="50" height="49" viewBox="0 0 50 49" fill="none" xmlns="http://www.w3.org/2000/svg">
<g clip-path="url(#clip0_1030_1938)">
<path d="M49.9956 24.1935C49.9956 10.8317 39.165 0 25.8044 0C12.4439 0 1.6129 10.8317 1.6129 24.1935C1.6129 37.5554 12.4439 48.3871 25.8044 48.3871C39.165 48.3871 49.9956 37.5554 49.9956 24.1935Z" fill="url(#paint0_linear_1030_1938)"/>
<path d="M49.9956 24.1935C49.9956 10.8317 39.165 0 25.8044 0C12.4439 0 1.6129 10.8317 1.6129 24.1935C1.6129 37.5554 12.4439 48.3871 25.8044 48.3871C39.165 48.3871 49.9956 37.5554 49.9956 24.1935Z" fill="url(#paint1_radial_1030_1938)"/>
<path d="M49.9956 24.1935C49.9956 10.8317 39.165 0 25.8044 0C12.4439 0 1.6129 10.8317 1.6129 24.1935C1.6129 37.5554 12.4439 48.3871 25.8044 48.3871C39.165 48.3871 49.9956 37.5554 49.9956 24.1935Z" fill="url(#paint2_radial_1030_1938)"/>
<path d="M25.8078 0C39.168 0.000336 49.9987 10.832 49.9987 24.1935C49.9987 28.6384 48.7977 32.8017 46.7063 36.381L47.0995 35.5104C49.4936 30.1946 45.6021 24.1791 39.7718 24.1835L30.1435 24.1909C27.75 24.1929 25.8078 22.2523 25.8078 19.8589V10.213C25.8075 4.38038 19.7853 0.49328 14.4708 2.8955L13.6969 3.24597C17.2587 1.18212 21.3952 0 25.8078 0Z" fill="url(#paint3_linear_1030_1938)"/>
<path d="M25.8078 0C39.168 0.000336 49.9987 10.832 49.9987 24.1935C49.9987 28.6384 48.7977 32.8017 46.7063 36.381L47.0995 35.5104C49.4936 30.1946 45.6021 24.1791 39.7718 24.1835L30.1435 24.1909C27.75 24.1929 25.8078 22.2523 25.8078 19.8589V10.213C25.8075 4.38038 19.7853 0.49328 14.4708 2.8955L13.6969 3.24597C17.2587 1.18212 21.3952 0 25.8078 0Z" fill="url(#paint4_radial_1030_1938)"/>
<path d="M25.8078 0C39.168 0.000336 49.9987 10.832 49.9987 24.1935C49.9987 28.6384 48.7977 32.8017 46.7063 36.381L47.0995 35.5104C49.4936 30.1946 45.6021 24.1791 39.7718 24.1835L30.1435 24.1909C27.75 24.1929 25.8078 22.2523 25.8078 19.8589V10.213C25.8075 4.38038 19.7853 0.49328 14.4708 2.8955L13.6969 3.24597C17.2587 1.18212 21.3952 0 25.8078 0Z" fill="url(#paint5_radial_1030_1938)"/>
<path d="M25.8078 0C39.168 0.000336 49.9987 10.832 49.9987 24.1935C49.9987 28.6384 48.7977 32.8017 46.7063 36.381L47.0995 35.5104C49.4936 30.1946 45.6021 24.1791 39.7718 24.1835L30.1435 24.1909C27.75 24.1929 25.8078 22.2523 25.8078 19.8589V10.213C25.8075 4.38038 19.7853 0.49328 14.4708 2.8955L13.6969 3.24597C17.2587 1.18212 21.3952 0 25.8078 0Z" fill="url(#paint6_radial_1030_1938)"/>
<path d="M25.8078 0C39.168 0.000336 49.9987 10.832 49.9987 24.1935C49.9987 28.6384 48.7977 32.8017 46.7063 36.381L47.0995 35.5104C49.4936 30.1946 45.6021 24.1791 39.7718 24.1835L30.1435 24.1909C27.75 24.1929 25.8078 22.2523 25.8078 19.8589V10.213C25.8075 4.38038 19.7853 0.49328 14.4708 2.8955L13.6969 3.24597C17.2587 1.18212 21.3952 0 25.8078 0Z" fill="url(#paint7_radial_1030_1938)"/>
<path d="M4.19355 22.9033H16.4516C18.7678 22.9033 20.6452 24.7807 20.6452 27.0969V39.3549C20.6452 41.6711 18.7678 43.5485 16.4516 43.5485H4.19355C1.87735 43.5485 0 41.6711 0 39.3549V27.0969C0 24.7807 1.87735 22.9033 4.19355 22.9033Z" fill="url(#paint8_radial_1030_1938)"/>
<path d="M4.19355 22.9033H16.4516C18.7678 22.9033 20.6452 24.7807 20.6452 27.0969V39.3549C20.6452 41.6711 18.7678 43.5485 16.4516 43.5485H4.19355C1.87735 43.5485 0 41.6711 0 39.3549V27.0969C0 24.7807 1.87735 22.9033 4.19355 22.9033Z" fill="url(#paint9_radial_1030_1938)"/>
<path d="M9.31552 35.2822V39.1243H6.65961V27.3269H10.7628C12.2319 27.3269 13.3501 27.6478 14.1176 28.2896C14.8908 28.9311 15.2772 29.8827 15.2772 31.1441C15.2772 32.4442 14.8441 33.4586 13.9778 34.1881C13.1173 34.9176 11.9603 35.2822 10.5077 35.2822H9.31552ZM9.31552 29.3672V33.2419H10.4257C11.0833 33.2419 11.5907 33.0695 11.9469 32.7237C12.3031 32.3783 12.4815 31.882 12.4815 31.2348C12.4815 30.6371 12.3058 30.1764 11.955 29.8524C11.6095 29.5289 11.1136 29.3672 10.4667 29.3672H9.31552Z" fill="white"/>
</g>
<defs>
<linearGradient id="paint0_linear_1030_1938" x1="23.3497" y1="-1.54031" x2="-6.29212" y2="26.8166" gradientUnits="userSpaceOnUse">
<stop offset="0.0582736" stop-color="#FF7F48"/>
<stop offset="1" stop-color="#E5495B"/>
</linearGradient>
<radialGradient id="paint1_radial_1030_1938" cx="0" cy="0" r="1" gradientUnits="userSpaceOnUse" gradientTransform="translate(35.367 14.0396) rotate(135) scale(48.5746 81.7575)">
<stop offset="0.151523" stop-color="#AA1D2D"/>
<stop offset="0.380855" stop-color="#D12B18" stop-opacity="0.439216"/>
<stop offset="0.601996" stop-color="#FF3C00" stop-opacity="0"/>
</radialGradient>
<radialGradient id="paint2_radial_1030_1938" cx="0" cy="0" r="1" gradientUnits="userSpaceOnUse" gradientTransform="translate(-6.83104 43.8596) rotate(-25.2832) scale(46.0463 83.4196)">
<stop offset="0.4067" stop-color="#FF66FB" stop-opacity="0.501961"/>
<stop offset="1" stop-color="#EA3D01" stop-opacity="0"/>
</radialGradient>
<linearGradient id="paint3_linear_1030_1938" x1="30.3862" y1="29.5772" x2="56.4245" y2="10.2783" gradientUnits="userSpaceOnUse">
<stop offset="0.310768" stop-color="#FF6E30"/>
<stop offset="0.634576" stop-color="#FFA05C"/>
</linearGradient>
<radialGradient id="paint4_radial_1030_1938" cx="0" cy="0" r="1" gradientUnits="userSpaceOnUse" gradientTransform="translate(21.7425 27.0866) rotate(11.8349) scale(31.2763 29.817)">
<stop offset="0.78593" stop-color="#FFA05C" stop-opacity="0"/>
<stop offset="0.904889" stop-color="#FFCE84"/>
</radialGradient>
<radialGradient id="paint5_radial_1030_1938" cx="0" cy="0" r="1" gradientUnits="userSpaceOnUse" gradientTransform="translate(26.649 23.8306) rotate(-33.1977) scale(31.5813 30.2015)">
<stop offset="0.295239" stop-color="#FF99E9" stop-opacity="0.8"/>
<stop offset="0.727968" stop-color="#FF99E9" stop-opacity="0"/>
</radialGradient>
<radialGradient id="paint6_radial_1030_1938" cx="0" cy="0" r="1" gradientUnits="userSpaceOnUse" gradientTransform="translate(23.1026 27.5241) rotate(-48.864) scale(33.6245 30.7085)">
<stop stop-color="#FD6EF9"/>
<stop offset="0.637205" stop-color="#FF9944"/>
<stop offset="0.85186" stop-color="#FCC479"/>
</radialGradient>
<radialGradient id="paint7_radial_1030_1938" cx="0" cy="0" r="1" gradientUnits="userSpaceOnUse" gradientTransform="translate(20.9019 3.19741) rotate(98.3949) scale(17.1141 38.6781)">
<stop offset="0.144283" stop-color="#FF8D13"/>
<stop offset="0.537266" stop-color="#FF7F29" stop-opacity="0"/>
</radialGradient>
<radialGradient id="paint8_radial_1030_1938" cx="0" cy="0" r="1" gradientUnits="userSpaceOnUse" gradientTransform="translate(-0.00251524 22.9033) rotate(45) scale(29.1966)">
<stop stop-color="#F8193E"/>
<stop offset="0.939062" stop-color="#920616"/>
</radialGradient>
<radialGradient id="paint9_radial_1030_1938" cx="0" cy="0" r="1" gradientUnits="userSpaceOnUse" gradientTransform="translate(10.32 35.2904) rotate(90) scale(14.4516 16.4516)">
<stop offset="0.575893" stop-color="#FFB055" stop-opacity="0"/>
<stop offset="0.973806" stop-color="#FFF2BE" stop-opacity="0.301961"/>
</radialGradient>
<clipPath id="clip0_1030_1938">
<rect width="50" height="48.3871" fill="white"/>
</clipPath>
</defs>
</svg>
