<svg width="40" height="40" viewBox="0 0 40 40" fill="none" xmlns="http://www.w3.org/2000/svg">
<path fill-rule="evenodd" clip-rule="evenodd" d="M1.10652 18.2339L1.55006 19.3346C2.0932 18.657 2.86333 17.9428 3.55585 17.458L3.55501 17.4568C4.56254 16.7237 5.72976 16.0956 6.98041 15.5623C7.09998 15.4409 7.57535 12.5716 13.4411 10.8813C15.6858 10.2345 18.2311 9.98712 19.9441 9.96736V7.5C16.7814 7.52331 11.8269 8.13122 7.71894 9.7994C4.79489 10.9868 2.31433 12.7068 1.27094 15.1251L0.891663 16.9289L1.10652 18.2339V18.2339Z" fill="#154B93"/>
<path fill-rule="evenodd" clip-rule="evenodd" d="M38.6775 18.5237C38.8102 18.1944 39.0191 17.4762 39.0283 17.1131C38.956 16.3593 38.8299 15.7159 38.6185 15.2849C37.5185 13.0425 34.0844 11.1975 31.8154 10.4006V14.3306C32.4176 14.8963 32.9197 15.52 33.1488 16.3405C35.0621 17.1283 36.717 18.0777 38.1304 19.5339C38.3548 19.201 38.5361 18.869 38.6775 18.5237Z" fill="#1C6AD0"/>
<path fill-rule="evenodd" clip-rule="evenodd" d="M8.14936 18.3576C8.37119 18.711 8.65564 19.0424 8.98403 19.3491C11.3732 17.5556 15.2104 16.7327 18.1207 16.4641C18.1207 16.1845 18.0847 15.9394 18.4073 15.7967L19.8713 15.0615V10.8587L18.2894 10.9381C16.9344 11.0457 15.5964 11.2824 14.2722 11.5842C14.199 11.6024 14.1259 11.621 14.0529 11.64V11.6401C13.9799 11.6591 13.9069 11.6785 13.8341 11.6983V11.6984C13.7613 11.7182 13.6886 11.7384 13.616 11.7591V11.7592C12.4164 12.1011 11.6437 12.4146 10.5492 12.9984L9.6763 13.5619C9.18244 13.9178 8.66395 14.4137 8.29093 14.9441H8.29089C8.25424 14.9962 8.2187 15.0489 8.1842 15.1022H8.18416C8.00167 15.3844 7.86032 15.656 7.77951 16.0301L7.64322 16.8274C7.67825 17.3321 7.82995 17.7987 8.07311 18.2287C8.0976 18.272 8.12302 18.315 8.14936 18.3576V18.3576Z" fill="#4A8FE7"/>
<path fill-rule="evenodd" clip-rule="evenodd" d="M20.5546 15.7142L19.5644 16.2114L22.7626 17.8036L30.7321 13.8013C30.7889 13.7656 30.8536 13.7424 30.9217 13.7355V10.5079L20.5546 15.7142V15.7142Z" fill="#154B93"/>
<path fill-rule="evenodd" clip-rule="evenodd" d="M32.1109 18.023C32.3043 17.5633 32.3536 17.2112 32.3197 16.7179C32.2507 16.196 31.773 15.5524 31.4144 15.1855V19.0966C31.6839 18.7968 31.9358 18.4214 32.1109 18.023V18.023Z" fill="#1C6AD0"/>
<path fill-rule="evenodd" clip-rule="evenodd" d="M30.5207 19.8942V14.9033L23.2086 18.5754V22.3994C25.4719 22.0752 28.5458 21.3442 30.5207 19.8942V19.8942Z" fill="#4A8FE7"/>
<path fill-rule="evenodd" clip-rule="evenodd" d="M19.716 22.6816C20.5786 22.6693 21.45 22.6101 22.3149 22.5133V18.5782L19.6653 17.2593C19.4577 17.2655 19.2402 17.2752 19.0145 17.2886V22.3323L19.716 22.6816Z" fill="#1C6AD0"/>
<path fill-rule="evenodd" clip-rule="evenodd" d="M22.833 23.3513C21.3639 23.5876 18.9159 23.6331 17.5362 23.4883C14.819 23.203 9.69721 21.9505 7.6369 19.1894L7.64438 23.0793L7.80612 24.0093C12.6084 25.8193 19.5114 26.4947 24.9212 25.728V25.7279C26.5887 25.4817 29.4336 24.8542 32.1355 23.7529L32.3539 23.29L32.3341 19.3828C30.4208 21.8678 25.9666 22.9569 22.833 23.3513V23.3513Z" fill="#1C6AD0"/>
<path fill-rule="evenodd" clip-rule="evenodd" d="M32.6484 24.509C30.4643 25.4589 27.4177 26.2573 25.0503 26.6111V26.6111C19.861 27.3644 12.5357 26.8068 7.2722 24.7593C4.42662 23.6532 2.09646 22.0883 0.888532 19.9877V23.2126H0.886887C0.930372 26.0367 3.07077 28.1089 6.00446 29.5694C10.2926 31.7041 16.2309 32.5259 19.9882 32.4994C24.7007 32.4662 35.9253 30.7351 38.6021 25.1655C38.8207 24.7108 38.9512 24.085 39.0255 23.3679L39.0258 23.3411L39.0264 23.3412C39.1417 22.2141 39.1205 20.9119 39.085 19.6947L38.5116 20.5206L38.5119 20.5208C37.0919 22.3112 34.789 23.6169 32.6484 24.509V24.509Z" fill="#4A8FE7"/>
</svg>
