<svg width="50" height="50" viewBox="0 0 50 50" fill="none" xmlns="http://www.w3.org/2000/svg">
<path fill-rule="evenodd" clip-rule="evenodd" d="M16.0481 0H49.0196V32.9715C49.0196 41.798 41.798 49.0196 32.9715 49.0196H16.0481C7.22165 49.0196 0 41.798 0 32.9715V16.0481C0 7.22165 7.22165 0 16.0481 0Z" fill="url(#paint0_linear_1030_1513)"/>
<path fill-rule="evenodd" clip-rule="evenodd" d="M36.9592 38.3666C37.2361 38.0825 37.7525 37.5661 38.0747 37.2583C38.3969 36.9505 38.5249 36.8513 38.6421 36.793C38.7593 36.7347 38.8658 36.7175 38.9478 36.7318C39.0298 36.7462 39.0873 36.7923 39.1275 36.8469C39.1678 36.9016 39.1909 36.9649 39.2124 37.0756C39.234 37.1864 39.2541 37.3446 39.2858 37.569C39.3174 37.7934 39.3606 38.0839 39.3936 38.3385C39.4268 38.5931 39.4497 38.8117 39.4469 38.9599C39.444 39.108 39.4152 39.1857 39.3548 39.2706C39.2944 39.3555 39.2023 39.4475 39.1175 39.5137C39.0326 39.5799 38.955 39.6201 38.8629 39.6388C38.7709 39.6575 38.6644 39.6546 38.5378 39.6445C38.4113 39.6345 38.2645 39.6172 38.1264 39.5971C37.9884 39.577 37.8589 39.554 37.728 39.5324C37.5971 39.5108 37.4648 39.4907 37.3138 39.4676C37.1627 39.4446 36.993 39.4188 36.8736 39.3943C36.7542 39.3698 36.6852 39.3468 36.6377 39.308C36.5902 39.2691 36.5644 39.2145 36.5471 39.157C36.5298 39.0994 36.5212 39.039 36.5327 38.9714C36.5442 38.9038 36.5759 38.829 36.6104 38.7657C36.6449 38.7024 36.6823 38.6506 36.9592 38.3666Z" fill="#FEFEFE"/>
<path fill-rule="evenodd" clip-rule="evenodd" d="M13.9866 10.1643C15.0122 9.22254 15.9072 9.10818 16.7578 9.7609C30.1979 23.201 36.9611 29.8909 36.9611 29.8909C37.8166 30.6801 38.3258 31.5058 38.4886 32.3678C38.6046 33.1565 38.7074 33.9275 38.7967 34.6806C38.8145 34.831 38.7663 34.9248 38.704 35.0616C38.5036 35.5014 38.1125 35.9555 37.5306 36.4239C36.2015 37.7184 35.537 38.3657 35.537 38.3657C35.1446 38.8071 34.203 38.5907 33.5268 38.4544C31.9968 38.1461 31.8569 38.3936 30.6005 37.2093C17.1833 23.7921 10.4747 17.0835 10.4747 17.0835C9.83129 16.5062 9.51774 16.0632 9.53395 15.7543C9.52185 15.5975 9.52318 15.4505 9.53793 15.3137C9.58966 14.8333 9.94145 14.3194 10.2329 13.9368C10.4484 13.6541 10.7158 13.3602 11.0351 13.0553C11.8407 12.2211 12.8246 11.2574 13.9866 10.1643Z" fill="#FEFEFE"/>
<path fill-rule="evenodd" clip-rule="evenodd" d="M12.3764 11.756C12.3234 11.8555 12.3223 11.9523 12.3347 12.0467C12.3471 12.1411 12.3729 12.2332 12.4118 12.3253C12.4506 12.4173 12.5024 12.5094 12.5743 12.6087C12.6462 12.7079 12.7383 12.8143 13.0792 13.1639C13.4201 13.5134 14.0098 14.106 14.5176 14.6195C15.0253 15.133 15.4511 15.5674 15.9387 16.0565C16.4263 16.5455 16.9758 17.0892 17.285 17.3913C17.5943 17.6933 17.6633 17.7537 17.6964 17.7825C17.7295 17.8113 17.7266 17.8084 18.3131 17.2147C18.8996 16.621 20.0755 15.4365 20.6642 14.8449C21.2529 14.2534 21.2543 14.2548 21.2522 14.2526C21.25 14.2505 21.2442 14.2447 20.5047 13.5056C19.7651 12.7665 18.2917 11.2941 17.5558 10.5586C16.8198 9.8231 16.8213 9.82454 16.7815 9.79365C16.7418 9.76273 16.6608 9.69945 16.5665 9.63982C16.4722 9.58016 16.3645 9.52416 16.2518 9.47954C16.139 9.43492 16.0213 9.40174 15.8949 9.38332C15.7684 9.36485 15.6333 9.36117 15.5061 9.37206C15.3789 9.38296 15.2597 9.40843 15.1531 9.4401C15.0464 9.47174 14.9524 9.50961 14.8297 9.57423C14.707 9.63881 14.5556 9.73021 14.4174 9.8266C14.2793 9.92295 14.1543 10.0244 14.0399 10.1237C13.9256 10.2231 13.8219 10.3204 13.689 10.4462C13.5561 10.5719 13.394 10.726 13.2141 10.8984C13.0342 11.0708 12.8364 11.2614 12.6852 11.4078C12.534 11.5542 12.4293 11.6564 12.3764 11.756Z" fill="url(#paint1_linear_1030_1513)"/>
<path fill-rule="evenodd" clip-rule="evenodd" d="M38.704 35.0617C38.5951 35.2855 38.4746 35.4761 38.3425 35.6334C37.6095 35.5879 37.0163 35.5339 36.5628 35.4715C35.714 35.4319 34.7243 34.8623 33.5939 33.7627L19.3801 19.5055L16.1556 22.7645L15.4264 22.0353L22.2259 15.2249L37.4075 30.3406C37.9551 30.917 38.3155 31.5928 38.4886 32.3679C38.6837 33.8234 38.7812 34.5511 38.7812 34.5511C38.8246 34.7333 38.7989 34.9035 38.704 35.0617Z" fill="url(#paint2_linear_1030_1513)"/>
<defs>
<linearGradient id="paint0_linear_1030_1513" x1="9.78207" y1="9.94304" x2="54.9354" y2="55.5106" gradientUnits="userSpaceOnUse">
<stop stop-color="#85E31C"/>
<stop offset="0.368627" stop-color="#2CC02B"/>
<stop offset="1" stop-color="#298822"/>
</linearGradient>
<linearGradient id="paint1_linear_1030_1513" x1="14.8149" y1="10.7994" x2="21.0443" y2="16.9826" gradientUnits="userSpaceOnUse">
<stop stop-color="#C6C6C6"/>
<stop offset="0.611765" stop-color="#E2E2E2"/>
<stop offset="1" stop-color="#FEFEFE"/>
</linearGradient>
<linearGradient id="paint2_linear_1030_1513" x1="22.5726" y1="18.1073" x2="37.6237" y2="34.2631" gradientUnits="userSpaceOnUse">
<stop stop-color="#C6C6C6"/>
<stop offset="0.670588" stop-color="#E2E2E2"/>
<stop offset="1" stop-color="#FEFEFE"/>
</linearGradient>
</defs>
</svg>
