<svg width="50" height="50" viewBox="0 0 50 50" fill="none" xmlns="http://www.w3.org/2000/svg">
<g clip-path="url(#clip0_1035_2708)">
<path d="M23.2067 29.1249L31.8405 18.8356L30.0624 17.3436L21.4287 27.6329L23.2067 29.1249Z" fill="black"/>
<path d="M31.8404 18.8356L40.4742 8.54626L38.6961 7.0543L30.0624 17.3436L31.8404 18.8356Z" fill="#0019FF"/>
<path d="M31.9548 18.9591L40.7668 8.82202L39.015 7.29925L30.203 17.4363L31.9548 18.9591Z" fill="#0015FF"/>
<path d="M32.0669 19.0845L41.0545 9.10278L39.3296 7.54967L30.342 17.5314L32.0669 19.0845Z" fill="#0011FF"/>
<path d="M32.1769 19.2119L41.3373 9.38855L39.6398 7.80557L30.4794 17.6289L32.1769 19.2119Z" fill="#000CFF"/>
<path d="M32.2846 19.3413L41.6151 9.67932L39.9454 8.06696L30.6149 17.7289L32.2846 19.3413Z" fill="#0008FF"/>
<path d="M32.39 19.4724L41.8877 9.97473L40.2464 8.33348L30.7488 17.8311L32.39 19.4724Z" fill="#0004FF"/>
<path d="M32.4932 19.6055L42.1552 10.275L40.5428 8.60538L30.8808 17.9358L32.4932 19.6055Z" fill="#0000FF"/>
<path d="M32.594 19.7402L42.4173 10.5798L40.8343 8.8823L31.011 18.0427L32.594 19.7402Z" fill="#0500FF"/>
<path d="M32.6924 19.8767L42.6741 10.8892L41.121 9.16426L31.1393 18.1518L32.6924 19.8767Z" fill="#0900FF"/>
<path d="M32.7884 20.015L42.9255 11.203L41.4027 9.45126L31.2657 18.2633L32.7884 20.015Z" fill="#0D00FF"/>
<path d="M32.882 20.1549L43.1713 11.5211L41.6794 9.74306L31.3901 18.3768L32.882 20.1549Z" fill="#1100FF"/>
<path d="M32.9732 20.2964L43.4116 11.8435L41.9509 10.0397L31.5125 18.4925L32.9732 20.2964Z" fill="#1600FF"/>
<path d="M33.0618 20.4394L43.6462 12.17L42.2172 10.341L31.6328 18.6104L33.0618 20.4394Z" fill="#1A00FF"/>
<path d="M33.148 20.584L43.8751 12.5006L42.4782 10.6469L31.7512 18.7303L33.148 20.584Z" fill="#1E00FF"/>
<path d="M33.2316 20.73L44.0981 12.8351L42.7338 10.9573L31.8673 18.8523L33.2316 20.73Z" fill="#2200FF"/>
<path d="M33.3126 20.8776L44.3152 13.1735L42.9839 11.2721L31.9813 18.9763L33.3126 20.8776Z" fill="#2700FF"/>
<path d="M33.3912 21.0264L44.5266 13.5155L43.2286 11.5912L32.0932 19.1022L33.3912 21.0264Z" fill="#2B00FF"/>
<path d="M33.467 21.1766L44.7318 13.8612L43.4676 11.9146L32.2028 19.23L33.467 21.1766Z" fill="#2F00FF"/>
<path d="M33.5402 21.3282L44.931 14.2104L43.701 12.2421L32.3102 19.3598L33.5402 21.3282Z" fill="#3300FF"/>
<path d="M33.6108 21.481L45.124 14.5631L43.9286 12.5736L32.4153 19.4914L33.6108 21.481Z" fill="#3800FF"/>
<path d="M33.6786 21.635L45.3109 14.9192L44.1503 12.9091L32.5181 19.6249L33.6786 21.635Z" fill="#3C00FF"/>
<path d="M33.7439 21.7901L45.4915 15.2783L44.3662 13.2483L32.6186 19.7601L33.7439 21.7901Z" fill="#4000FF"/>
<path d="M33.8063 21.9464L45.6658 15.6406L44.5761 13.5912L32.7166 19.897L33.8063 21.9464Z" fill="#4400FF"/>
<path d="M33.8661 22.1037L45.8338 16.0059L44.7801 13.9378L32.8123 20.0356L33.8661 22.1037Z" fill="#4800FF"/>
<path d="M33.9231 22.2621L45.9954 16.374L44.9779 14.2878L32.9056 20.1759L33.9231 22.2621Z" fill="#4D00FF"/>
<path d="M33.9772 22.4215L46.1505 16.745L45.1696 14.6414L32.9963 20.3179L33.9772 22.4215Z" fill="#5100FF"/>
<path d="M34.0287 22.5817L46.2992 17.1185L45.3551 14.9981L33.0846 20.4613L34.0287 22.5817Z" fill="#5500FF"/>
<path d="M34.0773 22.7428L46.4413 17.4946L45.5344 15.3581L33.1704 20.6062L34.0773 22.7428Z" fill="#5900FF"/>
<path d="M34.1231 22.9048L46.5768 17.8732L45.7073 15.7211L33.2536 20.7527L34.1231 22.9048Z" fill="#5E00FF"/>
<path d="M34.166 23.0675L46.7056 18.254L45.8738 16.0871L33.3342 20.9006L34.166 23.0675Z" fill="#6200FF"/>
<path d="M34.2062 23.231L46.8279 18.6371L46.034 16.456L33.4123 21.0499L34.2062 23.231Z" fill="#6600FF"/>
<path d="M34.2434 23.3952L46.9434 19.0222L46.1877 16.8276L33.4878 21.2005L34.2434 23.3952Z" fill="#6A00FF"/>
<path d="M34.2778 23.5599L47.0521 19.4093L46.3349 17.2018L33.5605 21.3524L34.2778 23.5599Z" fill="#6F00FF"/>
<path d="M34.3093 23.7253L47.1541 19.7982L46.4755 17.5786L33.6307 21.5056L34.3093 23.7253Z" fill="#7300FF"/>
<path d="M34.3379 23.8911L47.2493 20.1888L46.6096 17.9577L33.6982 21.66L34.3379 23.8911Z" fill="#7700FF"/>
<path d="M34.3637 24.0574L47.3377 20.5811L46.737 18.3391L33.7629 21.8154L34.3637 24.0574Z" fill="#7B00FF"/>
<path d="M34.3865 24.2242L47.4192 20.9747L46.8577 18.7226L33.8249 21.972L34.3865 24.2242Z" fill="#8000FF"/>
<path d="M34.4064 24.3912L47.4938 21.3698L46.9717 19.1082L33.8842 22.1296L34.4064 24.3912Z" fill="#8400FF"/>
<path d="M34.4233 24.5587L47.5615 21.7661L47.0789 19.4957L33.9407 22.2884L34.4233 24.5587Z" fill="#8800FF"/>
<path d="M34.4374 24.7265L47.6223 22.1636L47.1794 19.8851L33.9945 22.448L34.4374 24.7265Z" fill="#8C00FF"/>
<path d="M34.4485 24.8944L47.6762 22.562L47.2732 20.2762L34.0455 22.6086L34.4485 24.8944Z" fill="#9100FF"/>
<path d="M34.4567 25.0625L47.7231 22.9613L47.36 20.6688L34.0936 22.77L34.4567 25.0625Z" fill="#9500FF"/>
<path d="M34.462 25.2307L47.763 23.3613L47.44 21.0628L34.139 22.9322L34.462 25.2307Z" fill="#9900FF"/>
<path d="M34.4643 25.399L47.7959 23.7621L47.513 21.4583L34.1814 23.0952L34.4643 25.399Z" fill="#9D00FF"/>
<path d="M34.4637 25.5673L47.8218 24.1633L47.5792 21.855L34.2211 23.259L34.4637 25.5673Z" fill="#A100FF"/>
<path d="M34.4601 25.7356L47.8407 24.5649L47.6384 22.2527L34.2578 23.4233L34.4601 25.7356Z" fill="#A600FF"/>
<path d="M34.4536 25.9037L47.8526 24.9668L47.6907 22.6514L34.2917 23.5883L34.4536 25.9037Z" fill="#AA00FF"/>
<path d="M34.4442 26.0717L47.8575 25.3688L47.736 23.0509L34.3227 23.7538L34.4442 26.0717Z" fill="#AE00FF"/>
<path d="M34.4319 26.2396L47.8554 25.7709L47.7744 23.4512L34.3509 23.92L34.4319 26.2396Z" fill="#B200FF"/>
<path d="M34.4166 26.4073L47.8463 26.1729L47.8057 23.8521L34.3761 24.0865L34.4166 26.4073Z" fill="#B700FF"/>
<path d="M34.3984 26.5746H47.8301V24.2535H34.3984V26.5746Z" fill="#BB00FF"/>
<path d="M34.3772 26.7415L47.8069 26.976L47.8474 24.6552L34.4177 24.4208L34.3772 26.7415Z" fill="#BF00FF"/>
<path d="M34.3532 26.9081L47.7767 27.3768L47.8577 25.0572L34.4342 24.5884L34.3532 26.9081Z" fill="#C300FF"/>
<path d="M34.3263 27.0743L47.7396 27.7772L47.861 25.4593L34.4477 24.7564L34.3263 27.0743Z" fill="#C800FF"/>
<path d="M34.2964 27.2398L47.6954 28.1768L47.8573 25.8613L34.4583 24.9244L34.2964 27.2398Z" fill="#CC00FF"/>
<path d="M34.2637 27.4049L47.6443 28.5756L47.8466 26.2633L34.466 25.0927L34.2637 27.4049Z" fill="#D000FF"/>
<path d="M34.2281 27.5694L47.5862 28.9734L47.8289 26.665L34.4707 25.261L34.2281 27.5694Z" fill="#D400FF"/>
<path d="M34.1896 27.7333L47.5212 29.3702L47.8041 27.0665L34.4725 25.4295L34.1896 27.7333Z" fill="#D900FF"/>
<path d="M34.1483 27.8964L47.4493 29.7657L47.7724 27.4673L34.4714 25.5979L34.1483 27.8964Z" fill="#DD00FF"/>
<path d="M34.1042 28.0589L47.3705 30.16L47.7336 27.8675L34.4673 25.7663L34.1042 28.0589Z" fill="#E100FF"/>
<path d="M34.0572 28.2205L47.2849 30.5529L47.6879 28.267L34.4602 25.9346L34.0572 28.2205Z" fill="#E500FF"/>
<path d="M34.0074 28.3812L47.1923 30.9441L47.6352 28.6657L34.4503 26.1028L34.0074 28.3812Z" fill="#EA00FF"/>
<path d="M33.9548 28.5411L47.093 31.3337L47.5756 29.0634L34.4374 26.2708L33.9548 28.5411Z" fill="#EE00FF"/>
<path d="M33.8994 28.7001L46.9869 31.7216L47.509 29.46L34.4215 26.4385L33.8994 28.7001Z" fill="#F200FF"/>
<path d="M33.8413 28.858L46.874 32.1074L47.4355 29.8553L34.4028 26.6059L33.8413 28.858Z" fill="#F600FF"/>
<path d="M33.7804 29.0148L46.7545 32.4912L47.3552 30.2492L34.3812 26.7728L33.7804 29.0148Z" fill="#FA00FF"/>
<path d="M33.7168 29.1706L46.6282 32.8729L47.268 30.6418L34.3566 26.9395L33.7168 29.1706Z" fill="#FF00FF"/>
<path d="M33.6504 29.3254L46.4952 33.2524L47.1739 31.0328L34.329 27.1057L33.6504 29.3254Z" fill="#FF00FB"/>
<path d="M33.5814 29.4789L46.3557 33.6295L47.073 31.422L34.2986 27.2714L33.5814 29.4789Z" fill="#FF00F7"/>
<path d="M33.5097 29.6311L46.2097 34.004L46.9653 31.8094L34.2654 27.4365L33.5097 29.6311Z" fill="#FF00F3"/>
<path d="M33.4354 29.7822L46.0571 34.3761L46.8509 32.195L34.2292 27.6011L33.4354 29.7822Z" fill="#FF00EE"/>
<path d="M33.3584 29.9319L45.898 34.7454L46.7298 32.5784L34.1902 27.7649L33.3584 29.9319Z" fill="#FF00EA"/>
<path d="M33.2789 30.0801L45.7325 35.1117L46.602 32.9596L34.1484 27.928L33.2789 30.0801Z" fill="#FF00E6"/>
<path d="M33.1968 30.227L45.5607 35.4752L46.4677 33.3387L34.1037 28.0905L33.1968 30.227Z" fill="#FF00E2"/>
<path d="M33.1121 30.3725L45.3826 35.8357L46.3266 33.7153L34.0562 28.2521L33.1121 30.3725Z" fill="#FF00DD"/>
<path d="M33.0249 30.5164L45.1981 36.1929L46.1791 34.0893L34.0058 28.4128L33.0249 30.5164Z" fill="#FF00D9"/>
<path d="M32.9352 30.6588L45.0075 36.5469L46.025 34.4607L33.9527 28.5726L32.9352 30.6588Z" fill="#FF00D5"/>
<path d="M32.8429 30.7996L44.8107 36.8975L45.8644 34.8294L33.8967 28.7315L32.8429 30.7996Z" fill="#FF00D1"/>
<path d="M32.7483 30.9388L44.6078 37.2446L45.6975 35.1952L33.838 28.8894L32.7483 30.9388Z" fill="#FF00CC"/>
<path d="M32.6513 31.0763L44.3989 37.5881L45.5242 35.5581L33.7766 29.0462L32.6513 31.0763Z" fill="#FF00C8"/>
<path d="M32.5519 31.2121L44.1841 37.928L45.3446 35.9179L33.7124 29.202L32.5519 31.2121Z" fill="#FF00C4"/>
<path d="M32.4501 31.3462L43.9633 38.264L45.1588 36.2745L33.6455 29.3566L32.4501 31.3462Z" fill="#FF00C0"/>
<path d="M32.346 31.4785L43.7367 38.5962L44.9667 36.6278L33.5759 29.5101L32.346 31.4785Z" fill="#FF00BB"/>
<path d="M32.2395 31.6089L43.5043 38.9243L44.7685 36.9777L33.5037 29.6623L32.2395 31.6089Z" fill="#FF00B7"/>
<path d="M32.1309 31.7374L43.2663 39.2483L44.5642 37.324L33.4288 29.8131L32.1309 31.7374Z" fill="#FF00B3"/>
<path d="M32.02 31.864L43.0226 39.5681L44.354 37.6668L33.3513 29.9627L32.02 31.864Z" fill="#FF00AF"/>
<path d="M31.907 31.9886L42.7734 39.8835L44.1377 38.0057L33.2713 30.1108L31.907 31.9886Z" fill="#FF00AB"/>
<path d="M31.7918 32.1113L42.5188 40.1947L43.9157 38.341L33.1886 30.2576L31.7918 32.1113Z" fill="#FF00A6"/>
<path d="M31.6744 32.232L42.2587 40.5013L43.6877 38.6723L33.1034 30.4029L31.6744 32.232Z" fill="#FF00A2"/>
<path d="M31.5549 32.3505L41.9933 40.8033L43.4541 38.9995L33.0156 30.5467L31.5549 32.3505Z" fill="#FF009E"/>
<path d="M31.4334 32.467L41.7227 41.1007L43.2147 39.3227L32.9254 30.6889L31.4334 32.467Z" fill="#FF009A"/>
<path d="M31.3099 32.5813L41.447 41.3933L42.9697 39.6416L32.8327 30.8296L31.3099 32.5813Z" fill="#FF0095"/>
<path d="M31.1844 32.6935L41.1661 41.681L42.7192 39.9561L32.7375 30.9686L31.1844 32.6935Z" fill="#FF0091"/>
<path d="M31.057 32.8035L40.8804 41.9639L42.4633 40.2663L32.64 31.1059L31.057 32.8035Z" fill="#FF008D"/>
<path d="M30.9277 32.9111L40.5897 42.2416L42.202 40.5719L32.5401 31.2415L30.9277 32.9111Z" fill="#FF0089"/>
<path d="M30.7965 33.0165L40.2942 42.5142L41.9354 40.8729L32.4378 31.3752L30.7965 33.0165Z" fill="#FF0084"/>
<path d="M30.6635 33.1196L39.994 42.7816L41.6636 41.1693L32.3332 31.5073L30.6635 33.1196Z" fill="#FF0080"/>
<path d="M30.5287 33.2205L39.6891 43.0438L41.3867 41.4608L32.2263 31.6375L30.5287 33.2205Z" fill="#FF007C"/>
<path d="M30.3922 33.3189L39.3798 43.3007L41.1047 41.7476L32.1171 31.7658L30.3922 33.3189Z" fill="#FF0078"/>
<path d="M30.254 33.415L39.066 43.552L40.8177 42.0292L32.0057 31.8922L30.254 33.415Z" fill="#FF0073"/>
<path d="M30.1141 33.5086L38.7479 43.7979L40.5259 42.3059L31.8922 32.0166L30.1141 33.5086Z" fill="#FF006F"/>
<path d="M29.9726 33.5997L38.4255 44.0381L40.2293 42.5774L31.7764 32.139L29.9726 33.5997Z" fill="#FF006B"/>
<path d="M29.8295 33.6884L38.0989 44.2727L39.928 42.8437L31.6586 32.2594L29.8295 33.6884Z" fill="#FF0067"/>
<path d="M29.685 33.7745L37.7684 44.5016L39.6221 43.1047L31.5387 32.3777L29.685 33.7745Z" fill="#FF0062"/>
<path d="M29.5389 33.8581L37.4339 44.7246L39.3117 43.3603L31.4167 32.4938L29.5389 33.8581Z" fill="#FF005E"/>
<path d="M29.3914 33.9392L37.0955 44.9418L38.9968 43.6105L31.2927 32.6078L29.3914 33.9392Z" fill="#FF005A"/>
<path d="M29.2425 34.0177L36.7534 45.1531L38.6777 43.8551L31.1668 32.7197L29.2425 34.0177Z" fill="#FF0056"/>
<path d="M29.0923 34.0935L36.4077 45.3583L38.3543 44.0941L31.0389 32.8293L29.0923 34.0935Z" fill="#FF0052"/>
<path d="M28.9407 34.1668L36.0585 45.5575L38.0269 44.3275L30.9091 32.9368L28.9407 34.1668Z" fill="#FF004D"/>
<path d="M28.788 34.2373L35.7058 45.7505L37.6954 44.555L30.7775 33.0418L28.788 34.2373Z" fill="#FF0049"/>
<path d="M28.6339 34.3052L35.3498 45.9374L37.3599 44.7768L30.6441 33.1446L28.6339 34.3052Z" fill="#FF0045"/>
<path d="M28.4788 34.3704L34.9906 46.118L37.0207 44.9928L30.5088 33.2451L28.4788 34.3704Z" fill="#FF0041"/>
<path d="M28.3225 34.4329L34.6283 46.2924L36.6777 45.2027L30.3719 33.3432L28.3225 34.4329Z" fill="#FF003C"/>
<path d="M28.1651 34.4926L34.263 46.4603L36.3311 45.4066L30.2332 33.4388L28.1651 34.4926Z" fill="#FF0038"/>
<path d="M28.0068 34.5496L33.8949 46.6219L35.9811 45.6045L30.093 33.5321L28.0068 34.5496Z" fill="#FF0034"/>
<path d="M27.8474 34.6037L33.5239 46.777L35.6275 45.796L29.9511 33.6228L27.8474 34.6037Z" fill="#FF0030"/>
<path d="M27.6872 34.6552L33.1504 46.9257L35.2708 45.9816L29.8076 33.7111L27.6872 34.6552Z" fill="#FF002B"/>
<path d="M27.5261 34.7038L32.7743 47.0677L34.9109 46.1608L29.6627 33.7969L27.5261 34.7038Z" fill="#FF0027"/>
<path d="M27.3641 34.7496L32.3958 47.2032L34.5478 46.3338L29.5162 33.8801L27.3641 34.7496Z" fill="#FF0023"/>
<path d="M27.2014 34.7926L32.0149 47.3322L34.1818 46.5004L29.3683 33.9608L27.2014 34.7926Z" fill="#FF001F"/>
<path d="M27.0379 34.8327L31.6318 47.4543L33.8129 46.6605L29.219 34.0388L27.0379 34.8327Z" fill="#FF001A"/>
<path d="M26.8738 34.8699L31.2468 47.5698L33.4414 46.8142L29.0685 34.1142L26.8738 34.8699Z" fill="#FF0016"/>
<path d="M26.7091 34.9043L30.8597 47.6786L33.0672 46.9613L28.9165 34.187L26.7091 34.9043Z" fill="#FF0012"/>
<path d="M26.5437 34.9358L30.4708 47.7806L32.6904 47.102L28.7634 34.2572L26.5437 34.9358Z" fill="#FF000E"/>
<path d="M26.3779 34.9645L30.0801 47.8759L32.3113 47.2361L28.609 34.3247L26.3779 34.9645Z" fill="#FF0009"/>
<path d="M26.2115 34.9902L29.6879 47.9642L31.9299 47.3635L28.4535 34.3895L26.2115 34.9902Z" fill="#FF0005"/>
<path d="M26.0448 35.0129L29.2943 48.0457L31.5464 47.4841L28.297 34.4514L26.0448 35.0129Z" fill="#FF0001"/>
<path d="M25.8777 35.0329L28.8992 48.1204L31.1608 47.5982L28.1393 34.5108L25.8777 35.0329Z" fill="#FF0300"/>
<path d="M25.7103 35.0499L28.5029 48.1881L30.7732 47.7055L27.9806 34.5673L25.7103 35.0499Z" fill="#FF0700"/>
<path d="M25.5425 35.0638L28.1054 48.2488L30.3838 47.8059L27.821 34.621L25.5425 35.0638Z" fill="#FF0C00"/>
<path d="M25.3746 35.0751L27.707 48.3027L29.9928 47.8997L27.6604 34.672L25.3746 35.0751Z" fill="#FF1000"/>
<path d="M25.2065 35.0833L27.3077 48.3496L29.6002 47.9865L27.499 34.7202L25.2065 35.0833Z" fill="#FF1400"/>
<path d="M25.0383 35.0885L26.9076 48.3895L29.2061 48.0665L27.3368 34.7655L25.0383 35.0885Z" fill="#FF1800"/>
<path d="M24.87 35.0908L26.5069 48.4224L28.8107 48.1395L27.1738 34.8079L24.87 35.0908Z" fill="#FF1D00"/>
<path d="M24.7017 35.0902L26.1057 48.4484L28.414 48.2057L27.01 34.8476L24.7017 35.0902Z" fill="#FF2100"/>
<path d="M24.5334 35.0867L25.704 48.4673L28.0163 48.265L26.8456 34.8844L24.5334 35.0867Z" fill="#FF2500"/>
<path d="M24.3652 35.0801L25.3022 48.4791L27.6176 48.3172L26.6807 34.9182L24.3652 35.0801Z" fill="#FF2900"/>
<path d="M24.1972 35.0707L24.9001 48.484L27.2181 48.3625L26.5151 34.9492L24.1972 35.0707Z" fill="#FF2E00"/>
<path d="M24.0293 35.0584L24.4981 48.4819L26.8178 48.4009L26.349 34.9774L24.0293 35.0584Z" fill="#FF3200"/>
<path d="M23.8617 35.0431L24.0961 48.4728L26.4169 48.4323L26.1824 35.0026L23.8617 35.0431Z" fill="#FF3600"/>
<path d="M23.6944 35.0248V48.4565H26.0155V35.0248H23.6944Z" fill="#FF3A00"/>
<path d="M23.5274 35.0037L23.293 48.4333L25.6138 48.4739L25.8482 35.0442L23.5274 35.0037Z" fill="#FF3F00"/>
<path d="M23.3609 34.9797L22.8921 48.4032L25.2118 48.4842L25.6805 35.0607L23.3609 34.9797Z" fill="#FF4300"/>
<path d="M23.1947 34.9528L22.4918 48.3661L24.8097 48.4876L25.5126 35.0743L23.1947 34.9528Z" fill="#FF4700"/>
<path d="M23.0291 34.9229L22.0922 48.3219L24.4076 48.4838L25.3445 35.0848L23.0291 34.9229Z" fill="#FF4B00"/>
<path d="M22.864 34.8901L21.6934 48.2708L24.0056 48.473L25.1763 35.0924L22.864 34.8901Z" fill="#FF5000"/>
<path d="M22.6995 34.8546L21.2955 48.2128L23.6039 48.4554L25.0079 35.0973L22.6995 34.8546Z" fill="#FF5400"/>
<path d="M22.5357 34.8161L20.8987 48.1477L23.2025 48.4306L24.8394 35.099L22.5357 34.8161Z" fill="#FF5800"/>
<path d="M22.3725 34.7748L20.5032 48.0758L22.8017 48.3988L24.671 35.0978L22.3725 34.7748Z" fill="#FF5C00"/>
<path d="M22.2101 34.7307L20.1089 47.9971L22.4014 48.3602L24.5026 35.0938L22.2101 34.7307Z" fill="#FF6000"/>
<path d="M22.0485 34.6837L19.7161 47.9114L22.0019 48.3144L24.3343 35.0868L22.0485 34.6837Z" fill="#FF6500"/>
<path d="M21.8877 34.6339L19.3248 47.8188L21.6033 48.2617L24.1662 35.0768L21.8877 34.6339Z" fill="#FF6900"/>
<path d="M21.7279 34.5813L18.9352 47.7195L21.2056 48.2021L23.9982 35.0639L21.7279 34.5813Z" fill="#FF6D00"/>
<path d="M21.5689 34.5259L18.5474 47.6134L20.809 48.1355L23.8305 35.0481L21.5689 34.5259Z" fill="#FF7100"/>
<path d="M21.411 34.4678L18.1616 47.5005L20.4137 48.062L23.6631 35.0293L21.411 34.4678Z" fill="#FF7600"/>
<path d="M21.2541 34.4069L17.7777 47.381L20.0197 47.9817L23.4961 35.0077L21.2541 34.4069Z" fill="#FF7A00"/>
<path d="M21.0983 34.3432L17.396 47.2546L19.6272 47.8944L23.3294 34.983L21.0983 34.3432Z" fill="#FF7E00"/>
<path d="M20.9436 34.2769L17.0165 47.1217L19.2362 47.8003L23.1633 34.9555L20.9436 34.2769Z" fill="#FF8200"/>
<path d="M20.7901 34.208L16.6395 46.9823L18.8469 47.6996L22.9976 34.9252L20.7901 34.208Z" fill="#FF8700"/>
<path d="M20.6378 34.1362L16.2648 46.8362L18.4595 47.5919L22.8324 34.8919L20.6378 34.1362Z" fill="#FF8B00"/>
<path d="M20.4868 34.0619L15.8929 46.6836L18.074 47.4775L22.6679 34.8558L20.4868 34.0619Z" fill="#FF8F00"/>
<path d="M20.3371 33.9849L15.5236 46.5245L17.6905 47.3563L22.504 34.8168L20.3371 33.9849Z" fill="#FF9300"/>
<path d="M20.1888 33.9053L15.1572 46.359L17.3093 47.2285L22.3409 34.7748L20.1888 33.9053Z" fill="#FF9800"/>
<path d="M20.0419 33.8233L14.7937 46.1873L16.9303 47.0942L22.1785 34.7302L20.0419 33.8233Z" fill="#FF9C00"/>
<path d="M19.8965 33.7386L14.4333 46.009L16.5537 46.9531L22.0169 34.6826L19.8965 33.7386Z" fill="#FFA000"/>
<path d="M19.7525 33.6513L14.076 45.8246L16.1797 46.8055L21.8562 34.6322L19.7525 33.6513Z" fill="#FFA400"/>
<path d="M19.6101 33.5617L13.722 45.634L15.8082 46.6515L21.6963 34.5792L19.6101 33.5617Z" fill="#FFA900"/>
<path d="M19.4693 33.4695L13.3715 45.4373L15.4396 46.491L21.5374 34.5233L19.4693 33.4695Z" fill="#FFAD00"/>
<path d="M19.3301 33.3749L13.0243 45.2344L15.0737 46.3241L21.3795 34.4646L19.3301 33.3749Z" fill="#FFB100"/>
<path d="M19.1926 33.2777L12.6808 45.0254L14.7109 46.1507L21.2227 34.403L19.1926 33.2777Z" fill="#FFB500"/>
<path d="M19.0568 33.1783L12.3409 44.8105L14.3511 45.9711L21.0669 34.3389L19.0568 33.1783Z" fill="#FFB900"/>
<path d="M18.9228 33.0766L12.0049 44.5898L13.9945 45.7853L20.9123 34.2721L18.9228 33.0766Z" fill="#FFBE00"/>
<path d="M18.7905 32.9724L11.6728 44.3632L13.6412 45.5931L20.7589 34.2024L18.7905 32.9724Z" fill="#FFC200"/>
<path d="M18.6601 32.8661L11.3447 44.1309L13.2913 45.395L20.6067 34.1302L18.6601 32.8661Z" fill="#FFC600"/>
<path d="M18.5316 32.7574L11.0207 43.8928L12.945 45.1908L20.4559 34.0554L18.5316 32.7574Z" fill="#FFCA00"/>
<path d="M18.405 32.6466L10.7009 43.6492L12.6022 44.9805L20.3063 33.9779L18.405 32.6466Z" fill="#FFCF00"/>
<path d="M18.2803 32.5334L10.3854 43.3999L12.2632 44.7642L20.1581 33.8977L18.2803 32.5334Z" fill="#FFD300"/>
<path d="M18.1576 32.4182L10.0742 43.1453L11.9279 44.5421L20.0113 33.8151L18.1576 32.4182Z" fill="#FFD700"/>
<path d="M18.037 32.3009L9.76764 42.8853L11.5967 44.3143L19.8661 33.7299L18.037 32.3009Z" fill="#FFDB00"/>
<path d="M17.9184 32.1815L9.46558 42.6199L11.2694 44.0806L19.7223 33.6422L17.9184 32.1815Z" fill="#FFE000"/>
<path d="M17.802 32.06L9.16821 42.3492L10.9463 43.8412L19.58 33.5519L17.802 32.06Z" fill="#FFE400"/>
<path d="M17.6877 31.9364L8.87567 42.0735L10.6274 43.5963L19.4394 33.4592L17.6877 31.9364Z" fill="#FFE800"/>
<path d="M17.5755 31.8109L8.58789 41.7926L10.3128 43.3457L19.3004 33.364L17.5755 31.8109Z" fill="#FFEC00"/>
<path d="M17.4655 31.6835L8.30511 41.5068L10.0026 43.0898L19.1631 33.2665L17.4655 31.6835Z" fill="#FFF100"/>
<path d="M17.3579 31.5542L8.0274 41.2162L9.69705 42.8285L19.0275 33.1666L17.3579 31.5542Z" fill="#FFF500"/>
<path d="M17.2524 31.423L7.75476 40.9207L9.39602 42.5619L18.8937 33.0643L17.2524 31.423Z" fill="#FFF900"/>
<path d="M17.1493 31.29L7.4873 40.6205L9.09967 42.2901L18.7616 32.9597L17.1493 31.29Z" fill="#FFFD00"/>
<path d="M17.0485 31.1553L7.22516 40.3157L8.80813 42.0132L18.6315 32.8528L17.0485 31.1553Z" fill="#FCFF00"/>
<path d="M16.95 31.0187L6.96832 40.0062L8.52143 41.7311L18.5031 32.7436L16.95 31.0187Z" fill="#F8FF00"/>
<path d="M16.854 30.8805L6.71698 39.6925L8.23975 41.4442L18.3768 32.6323L16.854 30.8805Z" fill="#F4FF00"/>
<path d="M16.7604 30.7406L6.47113 39.3744L7.96309 41.1524L18.2524 32.5187L16.7604 30.7406Z" fill="#F0FF00"/>
<path d="M16.6693 30.5991L6.2309 39.052L7.6916 40.8558L18.13 32.403L16.6693 30.5991Z" fill="#ECFF00"/>
<path d="M16.5806 30.4561L5.99628 38.7255L7.42528 40.5545L18.0096 32.2851L16.5806 30.4561Z" fill="#E7FF00"/>
<path d="M16.4944 30.3115L5.7674 38.3949L7.16426 40.2486L17.8913 32.1652L16.4944 30.3115Z" fill="#E3FF00"/>
<path d="M16.4109 30.1655L5.54437 38.0604L6.90867 39.9382L17.7752 32.0433L16.4109 30.1655Z" fill="#DFFF00"/>
<path d="M16.3298 30.0179L5.32715 37.722L6.65847 39.6234L17.6611 31.9193L16.3298 30.0179Z" fill="#DBFF00"/>
<path d="M16.2513 29.8691L5.11591 37.38L6.41384 39.3043L17.5492 31.7934L16.2513 29.8691Z" fill="#D6FF00"/>
<path d="M16.1755 29.7187L4.91071 37.0342L6.17486 38.9808L17.4396 31.6654L16.1755 29.7187Z" fill="#D2FF00"/>
<path d="M16.1022 29.5672L4.71149 36.6849L5.94147 38.6533L17.3322 31.5356L16.1022 29.5672Z" fill="#CEFF00"/>
<path d="M16.0317 29.4144L4.51843 36.3323L5.71388 38.3218L17.2271 31.404L16.0317 29.4144Z" fill="#CAFF00"/>
<path d="M15.9638 29.2605L4.3316 35.9763L5.49215 37.9864L17.1244 31.2706L15.9638 29.2605Z" fill="#C5FF00"/>
<path d="M15.8986 29.1052L4.15094 35.6171L5.27622 37.6471L17.0239 31.1353L15.8986 29.1052Z" fill="#C1FF00"/>
<path d="M15.8361 28.949L3.97662 35.2548L5.06631 37.3042L16.9258 30.9983L15.8361 28.949Z" fill="#BDFF00"/>
<path d="M15.7764 28.7917L3.80865 34.8895L4.86241 36.9576L16.8302 30.8598L15.7764 28.7917Z" fill="#B9FF00"/>
<path d="M15.7194 28.6333L3.64703 34.5214L4.66453 36.6075L16.7369 30.7195L15.7194 28.6333Z" fill="#B4FF00"/>
<path d="M15.6652 28.474L3.49194 34.1505L4.47288 36.2541L16.6461 30.5776L15.6652 28.474Z" fill="#B0FF00"/>
<path d="M15.6137 28.3137L3.34326 33.7769L4.28733 35.8973L16.5578 30.4341L15.6137 28.3137Z" fill="#ACFF00"/>
<path d="M15.5651 28.1526L3.20117 33.4008L4.10809 35.5373L16.4721 30.2891L15.5651 28.1526Z" fill="#A8FF00"/>
<path d="M15.5193 27.9906L3.06567 33.0222L3.93517 35.1743L16.3888 30.1427L15.5193 27.9906Z" fill="#A3FF00"/>
<path d="M15.4764 27.8279L2.93683 32.6414L3.76863 34.8083L16.3082 29.9948L15.4764 27.8279Z" fill="#9FFF00"/>
<path d="M15.4363 27.6645L2.81458 32.2584L3.60843 34.4395L16.2301 29.8456L15.4363 27.6645Z" fill="#9BFF00"/>
<path d="M15.399 27.5004L2.6991 31.8733L3.45477 34.0679L16.1547 29.695L15.399 27.5004Z" fill="#97FF00"/>
<path d="M15.3647 27.3356L2.59033 31.4862L3.30759 33.6937L16.0819 29.5431L15.3647 27.3356Z" fill="#93FF00"/>
<path d="M15.3331 27.1702L2.48828 31.0973L3.1669 33.317L16.0117 29.3899L15.3331 27.1702Z" fill="#8EFF00"/>
<path d="M15.3045 27.0044L2.39313 30.7067L3.03291 32.9378L15.9443 29.2356L15.3045 27.0044Z" fill="#8AFF00"/>
<path d="M15.2788 26.8381L2.30475 30.3145L2.90549 32.5564L15.8795 29.0801L15.2788 26.8381Z" fill="#86FF00"/>
<path d="M15.256 26.6714L2.22327 29.9208L2.78479 32.1729L15.8175 28.9235L15.256 26.6714Z" fill="#82FF00"/>
<path d="M15.2361 26.5042L2.14862 29.5256L2.67075 31.7872L15.7582 28.7658L15.2361 26.5042Z" fill="#7DFF00"/>
<path d="M15.2191 26.3368L2.08087 29.1294L2.56345 31.3998L15.7017 28.6071L15.2191 26.3368Z" fill="#79FF00"/>
<path d="M15.205 26.169L2.02008 28.7319L2.46296 31.0104L15.6479 28.4475L15.205 26.169Z" fill="#75FF00"/>
<path d="M15.1939 26.0011L1.96625 28.3335L2.3693 30.6193L15.597 28.2869L15.1939 26.0011Z" fill="#71FF00"/>
<path d="M15.1857 25.833L1.91937 27.9342L2.28247 30.2267L15.5488 28.1255L15.1857 25.833Z" fill="#6CFF00"/>
<path d="M15.1805 25.6647L1.87946 27.5341L2.20249 29.8326L15.5035 27.9632L15.1805 25.6647Z" fill="#68FF00"/>
<path d="M15.1782 25.4965L1.84656 27.1334L2.12943 29.4372L15.461 27.8003L15.1782 25.4965Z" fill="#64FF00"/>
<path d="M15.1788 25.3282L1.82062 26.7322L2.06324 29.0405L15.4214 27.6366L15.1788 25.3282Z" fill="#60FF00"/>
<path d="M15.1823 25.1599L1.8017 26.3306L2.00399 28.6428L15.3846 27.4722L15.1823 25.1599Z" fill="#5BFF00"/>
<path d="M15.1888 24.9918L1.78979 25.9287L1.95171 28.2441L15.3507 27.3072L15.1888 24.9918Z" fill="#57FF00"/>
<path d="M15.1982 24.8236L1.78491 25.5266L1.90639 27.8445L15.3197 27.1416L15.1982 24.8236Z" fill="#53FF00"/>
<path d="M15.2106 24.6559L1.78705 25.1246L1.86805 27.4443L15.2916 26.9755L15.2106 24.6559Z" fill="#4FFF00"/>
<path d="M15.2259 24.4882L1.7962 24.7227L1.83671 27.0434L15.2664 26.809L15.2259 24.4882Z" fill="#4AFF00"/>
<path d="M15.2441 24.3209H1.81238V26.642H15.2441V24.3209Z" fill="#46FF00"/>
<path d="M15.2652 24.154L1.83557 23.9196L1.79506 26.2403L15.2247 26.4747L15.2652 24.154Z" fill="#42FF00"/>
<path d="M15.2893 23.9873L1.86572 23.5186L1.78472 25.8382L15.2083 26.307L15.2893 23.9873Z" fill="#3EFF00"/>
<path d="M15.3162 23.8212L1.90289 23.1183L1.78142 25.4362L15.1947 26.1392L15.3162 23.8212Z" fill="#3AFF00"/>
<path d="M15.346 23.6556L1.94702 22.7186L1.78511 25.0341L15.1841 25.971L15.346 23.6556Z" fill="#35FF00"/>
<path d="M15.3788 23.4905L1.99817 22.3198L1.79587 24.6321L15.1765 25.8027L15.3788 23.4905Z" fill="#31FF00"/>
<path d="M15.4143 23.326L2.05621 21.922L1.81359 24.2304L15.1717 25.6344L15.4143 23.326Z" fill="#2DFF00"/>
<path d="M15.4528 23.1622L2.12122 21.5253L1.83835 23.8291L15.1699 25.466L15.4528 23.1622Z" fill="#29FF00"/>
<path d="M15.4941 22.999L2.19312 21.1296L1.87008 23.4281L15.1711 25.2975L15.4941 22.999Z" fill="#24FF00"/>
<path d="M15.5383 22.8367L2.27191 20.7355L1.90881 23.028L15.1752 25.1292L15.5383 22.8367Z" fill="#20FF00"/>
<path d="M15.5853 22.675L2.3576 20.3427L1.95455 22.6285L15.1822 24.9609L15.5853 22.675Z" fill="#1CFF00"/>
<path d="M15.6351 22.5142L2.45013 19.9513L2.00725 22.2297L15.1922 24.7926L15.6351 22.5142Z" fill="#18FF00"/>
<path d="M15.6876 22.3544L2.54944 19.5618L2.06686 21.8321L15.2051 24.6247L15.6876 22.3544Z" fill="#13FF00"/>
<path d="M15.743 22.1954L2.65558 19.174L2.13345 21.4355L15.2209 24.457L15.743 22.1954Z" fill="#0FFF00"/>
<path d="M15.8012 22.0375L2.76843 18.7881L2.20691 21.0402L15.2396 24.2897L15.8012 22.0375Z" fill="#0BFF00"/>
<path d="M15.862 21.8806L2.888 18.4042L2.28726 20.6462L15.2613 24.1226L15.862 21.8806Z" fill="#07FF00"/>
<path d="M15.9257 21.7247L3.01428 18.0225L2.3745 20.2536L15.2859 23.9559L15.9257 21.7247Z" fill="#02FF00"/>
<path d="M15.992 21.5701L3.14722 17.6431L2.4686 19.8627L15.3134 23.7898L15.992 21.5701Z" fill="#00FF02"/>
<path d="M16.061 21.4166L3.28668 17.266L2.56943 19.4735L15.3437 23.6241L16.061 21.4166Z" fill="#00FF06"/>
<path d="M16.1327 21.2643L3.4328 16.8914L2.67713 19.086L15.3771 23.4589L16.1327 21.2643Z" fill="#00FF0A"/>
<path d="M16.2071 21.1133L3.58539 16.5194L2.79153 18.7005L15.4132 23.2944L16.2071 21.1133Z" fill="#00FF0F"/>
<path d="M16.284 20.9636L3.74445 16.1501L2.91264 18.3171L15.4522 23.1306L16.284 20.9636Z" fill="#00FF13"/>
<path d="M16.3636 20.8153L3.90991 15.7837L3.04042 17.9358L15.4941 22.9674L16.3636 20.8153Z" fill="#00FF17"/>
<path d="M16.4457 20.6684L4.08173 15.4202L3.17481 17.5567L15.5388 22.8049L16.4457 20.6684Z" fill="#00FF1B"/>
<path d="M16.5304 20.523L4.25989 15.0598L3.31582 17.1802L15.5863 22.6434L16.5304 20.523Z" fill="#00FF1F"/>
<path d="M16.6176 20.379L4.44434 14.7025L3.4634 16.8061L15.6367 22.4826L16.6176 20.379Z" fill="#00FF24"/>
<path d="M16.7073 20.2366L4.63495 14.3485L3.61745 16.4347L15.6898 22.3228L16.7073 20.2366Z" fill="#00FF28"/>
<path d="M16.7995 20.0958L4.83173 13.9979L3.77798 16.066L15.7457 22.1639L16.7995 20.0958Z" fill="#00FF2C"/>
<path d="M16.8941 19.9567L5.03461 13.6509L3.94492 15.7003L15.8044 22.0061L16.8941 19.9567Z" fill="#00FF30"/>
<path d="M16.9912 19.8191L5.24353 13.3073L4.11825 15.3373L15.8659 21.8491L16.9912 19.8191Z" fill="#00FF35"/>
<path d="M17.0906 19.6833L5.45837 12.9674L4.29783 14.9775L15.93 21.6934L17.0906 19.6833Z" fill="#00FF39"/>
<path d="M17.1924 19.5493L5.67914 12.6315L4.48369 14.621L15.9969 21.5389L17.1924 19.5493Z" fill="#00FF3D"/>
<path d="M17.2964 19.417L5.9057 12.2993L4.67571 14.2677L16.0665 21.3854L17.2964 19.417Z" fill="#00FF41"/>
<path d="M17.4028 19.2866L6.13806 11.9712L4.87391 13.9178L16.1387 21.2333L17.4028 19.2866Z" fill="#00FF46"/>
<path d="M17.5115 19.1581L6.3761 11.6472L5.07816 13.5715L16.2136 21.0824L17.5115 19.1581Z" fill="#00FF4A"/>
<path d="M17.6224 19.0315L6.61981 11.3274L5.28849 13.2287L16.2911 20.9328L17.6224 19.0315Z" fill="#00FF4E"/>
<path d="M17.7355 18.9068L6.86902 11.0118L5.50472 12.8896L16.3712 20.7846L17.7355 18.9068Z" fill="#00FF52"/>
<path d="M17.8507 18.7842L7.12366 10.7008L5.72679 12.5545L16.4538 20.6379L17.8507 18.7842Z" fill="#00FF57"/>
<path d="M17.9681 18.6636L7.38373 10.3942L5.95473 12.2232L16.5391 20.4926L17.9681 18.6636Z" fill="#00FF5B"/>
<path d="M18.0875 18.5449L7.64911 10.092L6.1884 11.8959L16.6268 20.3487L18.0875 18.5449Z" fill="#00FF5F"/>
<path d="M18.209 18.4285L7.91974 9.7948L6.42777 11.5729L16.7171 20.2066L18.209 18.4285Z" fill="#00FF63"/>
<path d="M18.3325 18.3142L8.1955 9.5022L6.67273 11.2539L16.8098 20.0659L18.3325 18.3142Z" fill="#00FF68"/>
<path d="M18.458 18.2021L8.47632 9.21448L6.92321 10.9394L16.9049 19.927L18.458 18.2021Z" fill="#00FF6C"/>
<path d="M18.5854 18.092L8.76208 8.93164L7.17911 10.6292L17.0024 19.7896L18.5854 18.092Z" fill="#00FF70"/>
<path d="M18.7148 17.9844L9.0528 8.65393L7.44043 10.3236L17.1024 19.654L18.7148 17.9844Z" fill="#00FF74"/>
<path d="M18.8459 17.8789L9.34827 8.38123L7.70701 10.0225L17.2047 19.5201L18.8459 17.8789Z" fill="#00FF78"/>
<path d="M18.979 17.7757L9.6485 8.11377L7.97885 9.72613L17.3093 19.3881L18.979 17.7757Z" fill="#00FF7D"/>
<path d="M19.1137 17.675L9.95331 7.85168L8.25577 9.43466L17.4162 19.258L19.1137 17.675Z" fill="#00FF81"/>
<path d="M19.2503 17.5766L10.2627 7.59485L8.53779 9.14796L17.5254 19.1297L19.2503 17.5766Z" fill="#00FF85"/>
<path d="M19.3885 17.4806L10.5765 7.34351L8.82473 8.86627L17.6367 19.0033L19.3885 17.4806Z" fill="#00FF89"/>
<path d="M19.5283 17.3869L10.8946 7.09766L9.11654 8.58962L17.7503 18.8789L19.5283 17.3869Z" fill="#00FF8E"/>
<path d="M19.6698 17.2958L11.217 6.85742L9.41316 8.31813L17.866 18.7565L19.6698 17.2958Z" fill="#00FF92"/>
<path d="M19.8129 17.2071L11.5435 6.6228L9.71448 8.05181L17.9839 18.6361L19.8129 17.2071Z" fill="#00FF96"/>
<path d="M19.9575 17.121L11.8741 6.39392L10.0204 7.79078L18.1038 18.5178L19.9575 17.121Z" fill="#00FF9A"/>
<path d="M20.1035 17.0374L12.2086 6.1709L10.3308 7.5352L18.2257 18.4017L20.1035 17.0374Z" fill="#00FF9F"/>
<path d="M20.2511 16.9562L12.5469 5.95361L10.6456 7.28493L18.3497 18.2876L20.2511 16.9562Z" fill="#00FFA3"/>
<path d="M20.3999 16.8778L12.889 5.74243L10.9647 7.04037L18.4756 18.1758L20.3999 16.8778Z" fill="#00FFA7"/>
<path d="M20.5502 16.802L13.2347 5.53723L11.2881 6.80138L18.6036 18.0662L20.5502 16.802Z" fill="#00FFAB"/>
<path d="M20.7017 16.7288L13.584 5.33801L11.6156 6.568L18.7333 17.9587L20.7017 16.7288Z" fill="#00FFB0"/>
<path d="M20.8545 16.6581L13.9366 5.1449L11.9471 6.34034L18.8649 17.8536L20.8545 16.6581Z" fill="#00FFB4"/>
<path d="M21.0085 16.5903L14.2927 4.95813L12.2825 6.11867L18.9984 17.7509L21.0085 16.5903Z" fill="#00FFB8"/>
<path d="M21.1637 16.5251L14.6519 4.77747L12.6218 5.90275L19.1336 17.6504L21.1637 16.5251Z" fill="#00FFBC"/>
<path d="M21.32 16.4627L15.0142 4.60315L12.9648 5.69283L19.2706 17.5523L21.32 16.4627Z" fill="#00FFC1"/>
<path d="M21.4773 16.4029L15.3794 4.43518L13.3113 5.48893L19.4092 17.4567L21.4773 16.4029Z" fill="#00FFC5"/>
<path d="M21.6356 16.3459L15.7476 4.27356L13.6614 5.29106L19.5495 17.3634L21.6356 16.3459Z" fill="#00FFC9"/>
<path d="M21.795 16.2917L16.1185 4.11841L14.0149 5.09934L19.6913 17.2726L21.795 16.2917Z" fill="#00FFCD"/>
<path d="M21.9552 16.2402L16.4921 3.96973L14.3716 4.9138L19.8348 17.1843L21.9552 16.2402Z" fill="#00FFD1"/>
<path d="M22.1164 16.1916L16.8682 3.82764L14.7316 4.73456L19.9798 17.0985L22.1164 16.1916Z" fill="#00FFD6"/>
<path d="M22.2783 16.1458L17.2467 3.69214L15.0946 4.56163L20.1262 17.0153L22.2783 16.1458Z" fill="#00FFDA"/>
<path d="M22.4411 16.1029L17.6276 3.56335L15.4606 4.39516L20.2741 16.9347L22.4411 16.1029Z" fill="#00FFDE"/>
<path d="M22.6045 16.0627L18.0106 3.44104L15.8295 4.2349L20.4234 16.8566L22.6045 16.0627Z" fill="#00FFE2"/>
<path d="M22.7686 16.0255L18.3957 3.32556L16.2011 4.08123L20.574 16.7812L22.7686 16.0255Z" fill="#00FFE7"/>
<path d="M22.9334 15.9911L18.7828 3.2168L16.5753 3.93405L20.7259 16.7084L22.9334 15.9911Z" fill="#00FFEB"/>
<path d="M23.0987 15.9597L19.1716 3.11487L16.952 3.79349L20.879 16.6383L23.0987 15.9597Z" fill="#00FFEF"/>
<path d="M23.2645 15.931L19.5623 3.01965L17.3311 3.65943L21.0334 16.5708L23.2645 15.931Z" fill="#00FFF3"/>
<path d="M23.4309 15.9053L19.9545 2.93127L17.7125 3.53202L21.1889 16.5061L23.4309 15.9053Z" fill="#00FFF8"/>
<path d="M23.5976 15.8825L20.3482 2.84973L18.0961 3.41125L21.3455 16.444L23.5976 15.8825Z" fill="#00FFFC"/>
<path d="M23.7648 15.8626L20.7433 2.77515L18.4817 3.29728L21.5032 16.3847L23.7648 15.8626Z" fill="#00FEFF"/>
<path d="M23.9322 15.8456L21.1396 2.7074L18.8692 3.18998L21.6618 16.3282L23.9322 15.8456Z" fill="#00FAFF"/>
<path d="M24.0999 15.8315L21.537 2.64661L19.2586 3.08949L21.8215 16.2744L24.0999 15.8315Z" fill="#00F5FF"/>
<path d="M24.2679 15.8204L21.9355 2.59277L19.6497 2.99583L21.9821 16.2235L24.2679 15.8204Z" fill="#00F1FF"/>
<path d="M24.436 15.8122L22.3348 2.5459L20.0423 2.909L22.1435 16.1753L24.436 15.8122Z" fill="#00EDFF"/>
<path d="M24.6042 15.807L22.7349 2.50598L20.4364 2.82901L22.3057 16.13L24.6042 15.807Z" fill="#00E9FF"/>
<path d="M24.7725 15.8046L23.1356 2.47302L20.8318 2.75589L22.4687 16.0875L24.7725 15.8046Z" fill="#00E4FF"/>
<path d="M24.9408 15.8053L23.5368 2.44714L21.2284 2.68976L22.6324 16.0479L24.9408 15.8053Z" fill="#00E0FF"/>
<path d="M25.1091 15.8088L23.9384 2.42822L21.6262 2.63052L22.7968 16.0111L25.1091 15.8088Z" fill="#00DCFF"/>
<path d="M25.2772 15.8154L24.3403 2.41638L22.0248 2.57829L22.9618 15.9773L25.2772 15.8154Z" fill="#00D8FF"/>
<path d="M25.4453 15.8248L24.7423 2.4115L22.4244 2.53298L23.1274 15.9463L25.4453 15.8248Z" fill="#00D4FF"/>
<path d="M25.6131 15.8371L25.1443 2.41357L22.8247 2.49458L23.2934 15.9181L25.6131 15.8371Z" fill="#00CFFF"/>
<path d="M25.7807 15.8524L25.5463 2.42273L23.2256 2.46324L23.46 15.8929L25.7807 15.8524Z" fill="#00CBFF"/>
<path d="M25.9481 15.8706V2.43884H23.627V15.8706H25.9481Z" fill="#00C7FF"/>
<path d="M26.115 15.8917L26.3494 2.46204L24.0287 2.42153L23.7943 15.8512L26.115 15.8917Z" fill="#00C3FF"/>
<path d="M26.2816 15.9157L26.7504 2.49219L24.4307 2.41118L23.9619 15.8347L26.2816 15.9157Z" fill="#00BEFF"/>
<path d="M26.4477 15.9427L27.1507 2.52942L24.8328 2.40794L24.1298 15.8213L26.4477 15.9427Z" fill="#00BAFF"/>
<path d="M26.6133 15.9725L27.5503 2.57349L25.2349 2.41158L24.2979 15.8106L26.6133 15.9725Z" fill="#00B6FF"/>
<path d="M26.7784 16.0052L27.9491 2.62463L25.6368 2.42234L24.4662 15.8029L26.7784 16.0052Z" fill="#00B2FF"/>
<path d="M26.9429 16.0409L28.3469 2.68274L26.0386 2.44012L24.6346 15.7983L26.9429 16.0409Z" fill="#00ADFF"/>
<path d="M27.1068 16.0793L28.7437 2.74768L26.4399 2.46481L24.803 15.7964L27.1068 16.0793Z" fill="#00A9FF"/>
<path d="M27.2699 16.1206L29.1393 2.81958L26.8408 2.49655L24.9715 15.7975L27.2699 16.1206Z" fill="#00A5FF"/>
<path d="M27.4323 16.1648L29.5335 2.89844L27.241 2.53534L25.1398 15.8017L27.4323 16.1648Z" fill="#00A1FF"/>
<path d="M27.5939 16.2118L29.9263 2.98413L27.6405 2.58108L25.3081 15.8087L27.5939 16.2118Z" fill="#009CFF"/>
<path d="M27.7547 16.2616L30.3176 3.07666L28.0392 2.63378L25.4763 15.8187L27.7547 16.2616Z" fill="#0098FF"/>
<path d="M27.9146 16.3141L30.7072 3.1759L28.4369 2.69332L25.6442 15.8315L27.9146 16.3141Z" fill="#0094FF"/>
<path d="M28.0736 16.3696L31.095 3.2821L28.8334 2.75997L25.812 15.8474L28.0736 16.3696Z" fill="#0090FF"/>
<path d="M28.2315 16.4276L31.4809 3.3949L29.2288 2.83338L25.9793 15.8661L28.2315 16.4276Z" fill="#008BFF"/>
<path d="M28.3884 16.4886L31.8647 3.51453L29.6228 2.91379L26.1464 15.8878L28.3884 16.4886Z" fill="#0087FF"/>
<path d="M28.5442 16.5521L32.2465 3.64075L30.0153 3.00097L26.313 15.9124L28.5442 16.5521Z" fill="#0083FF"/>
<path d="M28.6989 16.6185L32.6259 3.77368L30.4063 3.09506L26.4792 15.9399L28.6989 16.6185Z" fill="#007FFF"/>
<path d="M28.8524 16.6875L33.003 3.91321L30.7955 3.19595L26.6449 15.9703L28.8524 16.6875Z" fill="#007BFF"/>
<path d="M29.0046 16.7593L33.3776 4.05933L31.1829 3.30365L26.81 16.0036L29.0046 16.7593Z" fill="#0076FF"/>
<path d="M29.1557 16.8336L33.7496 4.21191L31.5685 3.41806L26.9745 16.0397L29.1557 16.8336Z" fill="#0072FF"/>
<path d="M29.3053 16.9106L34.1188 4.37097L31.9519 3.53917L27.1384 16.0788L29.3053 16.9106Z" fill="#006EFF"/>
<path d="M29.4536 16.99L34.4852 4.53638L32.3332 3.66688L27.3015 16.1206L29.4536 16.99Z" fill="#006AFF"/>
<path d="M29.6006 17.0722L34.8488 4.70825L32.7122 3.80133L27.464 16.1653L29.6006 17.0722Z" fill="#0065FF"/>
<path d="M29.746 17.1568L35.2092 4.88635L33.0888 3.94228L27.6256 16.2128L29.746 17.1568Z" fill="#0061FF"/>
<path d="M29.8899 17.2441L35.5664 5.0708L33.4628 4.08987L27.7863 16.2631L29.8899 17.2441Z" fill="#005DFF"/>
<path d="M30.0323 17.3338L35.9204 5.26147L33.8342 4.24398L27.9462 16.3163L30.0323 17.3338Z" fill="#0059FF"/>
<path d="M30.1731 17.426L36.271 5.45825L34.2029 4.4045L28.105 16.3722L30.1731 17.426Z" fill="#0054FF"/>
<path d="M30.3123 17.5206L36.6181 5.66113L34.5687 4.57145L28.2629 16.431L30.3123 17.5206Z" fill="#0050FF"/>
<path d="M30.4498 17.6176L36.9617 5.87L34.9316 4.74471L28.4198 16.4924L30.4498 17.6176Z" fill="#004CFF"/>
<path d="M30.5857 17.717L37.3015 6.08484L35.2914 4.9243L28.5755 16.5565L30.5857 17.717Z" fill="#0048FF"/>
<path d="M30.7197 17.8189L37.6375 6.30566L35.648 5.11022L28.7301 16.6234L30.7197 17.8189Z" fill="#0043FF"/>
<path d="M30.8519 17.923L37.9697 6.53223L36.0013 5.30224L28.8835 16.693L30.8519 17.923Z" fill="#003FFF"/>
<path d="M30.9823 18.0293L38.2977 6.76453L36.3511 5.50037L29.0357 16.7652L30.9823 18.0293Z" fill="#003BFF"/>
<path d="M31.1108 18.1381L38.6218 7.00269L36.6975 5.70475L29.1866 16.8401L31.1108 18.1381Z" fill="#0037FF"/>
<path d="M31.2375 18.249L38.9416 7.24634L37.0403 5.91502L29.3362 16.9176L31.2375 18.249Z" fill="#0032FF"/>
<path d="M31.3621 18.362L39.2571 7.49548L37.3793 6.13118L29.4843 16.9977L31.3621 18.362Z" fill="#002EFF"/>
<path d="M31.4848 18.4772L39.5682 7.75012L37.7145 6.35326L29.6311 17.0803L31.4848 18.4772Z" fill="#002AFF"/>
<path d="M31.6054 18.5946L39.8748 8.01025L38.0458 6.58125L29.7764 17.1656L31.6054 18.5946Z" fill="#0026FF"/>
<path d="M31.724 18.714L40.1769 8.27563L38.3731 6.81493L29.9202 17.2533L31.724 18.714Z" fill="#0022FF"/>
<path d="M25.5013 47.6862H24.1828C24.1216 47.6639 24.0602 47.6584 23.9985 47.6584C23.2946 47.625 22.5957 47.5683 21.903 47.4741C20.6072 47.3064 19.333 47.0215 18.0928 46.6253C15.9642 45.9441 13.9809 44.9666 12.1428 43.6928C10.4383 42.5084 8.93045 41.1122 7.61727 39.5039C6.06914 37.6158 4.86282 35.5322 4.00764 33.2427C3.24197 31.2095 2.78397 29.1042 2.64398 26.9312C2.64398 26.8139 2.62174 26.6966 2.58282 26.5793V24.2836C2.62174 24.1824 2.63842 24.0768 2.64398 23.9708C2.67178 23.4512 2.72737 22.9316 2.7952 22.4181C3.13067 19.9383 3.86765 17.5863 5.00203 15.3575C5.78416 13.8213 6.73407 12.392 7.85099 11.0731C8.95735 9.76635 10.1977 8.5985 11.5717 7.57664C13.8122 5.91187 16.2762 4.71111 18.9689 3.97424C20.276 3.6172 21.6118 3.38259 22.9633 3.27051C23.2033 3.24827 23.4552 3.27051 23.6952 3.20935H25.9523C26.1253 3.25939 26.3043 3.23159 26.4772 3.24827C27.3716 3.3261 28.2598 3.43852 29.142 3.61142C31.919 4.15882 34.4942 5.19802 36.8747 6.73325C38.7242 7.92289 40.3555 9.35827 41.78 11.0283C42.9256 12.3689 43.8972 13.8269 44.6908 15.4013C45.6294 17.2617 46.2995 19.2106 46.6803 21.2603C46.8811 22.3437 47.0323 23.4385 47.0374 24.5445C47.0374 24.6179 47.0541 24.6958 47.0596 24.7678V26.0861C47.0374 26.1695 47.0374 26.259 47.0318 26.3484C47.0318 26.5605 47.0318 26.7734 47.0152 26.9853C46.914 28.3373 46.7023 29.6719 46.3668 30.99C45.7245 33.4646 44.6903 35.7603 43.2544 37.8768C42.1871 39.4521 40.9416 40.871 39.511 42.1273C38.0866 43.3786 36.5273 44.4344 34.8343 45.2884C32.884 46.2711 30.8337 46.9532 28.6826 47.3268C27.856 47.4719 27.0234 47.5666 26.1856 47.617C25.9648 47.6426 25.7307 47.6372 25.5013 47.6862Z" fill="#383838"/>
<path d="M19.037 16.2205C19.0214 16.6291 19.094 17.0758 19.2144 17.5226C19.4438 18.3727 19.8239 19.1517 20.2721 19.8874C21.2932 21.5606 22.5803 22.9931 23.9768 24.3231C24.0912 24.4324 24.2273 24.5248 24.3731 24.5952C24.5191 24.6711 24.6649 24.6711 24.8157 24.606C24.9615 24.5409 25.0919 24.4482 25.2014 24.328C25.6861 23.8269 26.1651 23.3251 26.6238 22.8073C27.2698 22.0715 27.885 21.3146 28.4425 20.5025C28.9483 19.7669 29.4013 18.9929 29.7345 18.1538C30.0676 17.3197 30.2296 16.4594 30.1202 15.5549C29.9378 14.0622 29.3284 12.7976 28.2392 11.8059C26.9513 10.6353 25.4511 10.1665 23.7629 10.4276C21.017 10.8532 19.0264 13.3818 19.037 16.2205Z" fill="url(#paint0_radial_1035_2708)" style="mix-blend-mode:lighten"/>
<path d="M33.2475 36.5654C32.9019 36.5759 32.5139 36.5332 32.1259 36.4508C30.9781 36.1995 30.0032 35.6776 29.254 34.7524C28.7984 34.1882 28.4153 33.5767 28.0852 32.9337C27.697 32.1759 27.3727 31.3865 27.0898 30.5873C26.7442 29.6207 26.4507 28.6329 26.2249 27.6345C26.0994 27.0752 26.2404 26.7248 26.859 26.5321C27.6448 26.2866 28.4365 26.067 29.2435 25.889C30.5795 25.5963 31.9262 25.4085 33.2998 25.4548C33.6878 25.4703 34.0751 25.512 34.4581 25.5799C35.5692 25.7735 36.5123 26.2857 37.2826 27.0955C38.5983 28.4752 39.1216 30.1214 38.7971 31.9979C38.3309 34.6793 35.9514 36.5865 33.2475 36.5654Z" fill="url(#paint1_radial_1035_2708)"/>
<path d="M15.9415 36.5654C16.2871 36.5759 16.6752 36.5332 17.0631 36.4508C18.2109 36.1995 19.1858 35.6776 19.935 34.7524C20.3907 34.1882 20.7737 33.5767 21.1039 32.9337C21.4921 32.1759 21.8164 31.3865 22.0992 30.5873C22.4448 29.6207 22.7383 28.6329 22.9642 27.6345C23.0897 27.0752 22.9486 26.7248 22.33 26.5321C21.5442 26.2866 20.7526 26.067 19.9456 25.889C18.6095 25.5963 17.2629 25.4085 15.8893 25.4548C15.5012 25.4703 15.114 25.512 14.7309 25.5799C13.6199 25.7735 12.6768 26.2857 11.9065 27.0955C10.5908 28.4752 10.0675 30.1214 10.3919 31.9979C10.8582 34.6793 13.2376 36.5865 15.9415 36.5654Z" fill="url(#paint2_radial_1035_2708)"/>
</g>
<defs>
<radialGradient id="paint0_radial_1035_2708" cx="0" cy="0" r="1" gradientUnits="userSpaceOnUse" gradientTransform="translate(24.7021 23.9124) rotate(4.82254) scale(5.90558 10.9165)">
<stop stop-color="white"/>
<stop offset="1" stop-color="#009BD8"/>
</radialGradient>
<radialGradient id="paint1_radial_1035_2708" cx="0" cy="0" r="1" gradientUnits="userSpaceOnUse" gradientTransform="translate(26.2447 27.2928) rotate(21.7759) scale(13.023 6.95919)">
<stop stop-color="white"/>
<stop offset="1" stop-color="#FF3044"/>
</radialGradient>
<radialGradient id="paint2_radial_1035_2708" cx="0" cy="0" r="1" gradientUnits="userSpaceOnUse" gradientTransform="translate(22.8752 26.8209) rotate(146.321) scale(13.1607 5.98221)">
<stop stop-color="white"/>
<stop offset="1" stop-color="#FCFF7C"/>
</radialGradient>
<clipPath id="clip0_1035_2708">
<rect width="50" height="50" fill="white"/>
</clipPath>
</defs>
</svg>
