<svg width="34" height="50" viewBox="0 0 34 50" fill="none" xmlns="http://www.w3.org/2000/svg">
<path d="M0.583328 8.33333C0.583328 3.73333 4.31666 0 8.91666 0H17.25V16.6667H8.91666C4.31666 16.6667 0.583328 12.9333 0.583328 8.33333Z" fill="#F24E1E"/>
<path d="M17.25 0H25.5833C30.1833 0 33.9167 3.73333 33.9167 8.33333C33.9167 12.9333 30.1833 16.6667 25.5833 16.6667H17.25V0Z" fill="#FF7262"/>
<path d="M0.583328 24.9999C0.583328 20.4 4.31666 16.6666 8.91666 16.6666H17.25V33.3333H8.91666C4.31666 33.3333 0.583328 29.5999 0.583328 24.9999Z" fill="#A259FF"/>
<path d="M33.9167 24.9999C33.9167 29.5999 30.1833 33.3333 25.5833 33.3333C20.9833 33.3333 17.25 29.5999 17.25 24.9999C17.25 20.4 20.9833 16.6666 25.5833 16.6666C30.1833 16.6666 33.9167 20.4 33.9167 24.9999Z" fill="#1ABCFE"/>
<path d="M8.91666 50C13.5167 50 17.25 46.2667 17.25 41.6667V33.3334H8.91666C4.31666 33.3334 0.583328 37.0667 0.583328 41.6667C0.583328 46.2667 4.31666 50 8.91666 50Z" fill="#0ACF83"/>
</svg>
