<svg width="50" height="50" viewBox="0 0 50 50" fill="none" xmlns="http://www.w3.org/2000/svg">
<g clip-path="url(#clip0_1035_2132)">
<path d="M9.13886 -0.000488281L1.5264 4.65819L1.56702 4.68566L3.06129 4.5529L8.93236 1.16207L9.13886 -0.000488281Z" fill="#FF9548"/>
<path d="M9.06223 0.0715256L9.13672 0C9.11914 11.707 9.11133 23.4141 9.14062 35.1211C7.84641 35.9011 2.39092 39.1878 1.5293 39.6973C1.52734 28.0176 1.53125 16.3379 1.52734 4.6582C3.26342 3.05923 7.57731 1.72586 9.06223 0.0715256Z" fill="#FF9548"/>
<path d="M9.13672 0H42.6543C43.8516 0.199219 44.9902 1.11523 45.043 2.39648C45.0801 4.21875 45.0449 6.04102 45.0566 7.86523C45.0586 16.9473 45.0547 26.0312 45.0586 35.1133C33.0859 35.1328 21.1133 35.1172 9.14062 35.1211C9.11133 23.4141 9.11914 11.707 9.13672 0ZM21.8301 7.91602C21.8359 14.3848 21.8301 20.8555 21.834 27.3242C23.4551 27.3203 25.0762 27.334 26.6973 27.3164C26.6855 24.707 26.6934 22.0957 26.6914 19.4844C28.8145 19.4883 30.9375 19.4707 33.0625 19.4922C33.082 18.3418 33.0938 17.1875 33.0547 16.0371C30.9336 16.0605 28.8145 16.043 26.6934 16.0469C26.6816 14.5078 26.707 12.9688 26.6777 11.4277C29.1992 11.3809 31.7227 11.4219 34.2441 11.4082C34.2422 10.2441 34.2422 9.07812 34.2441 7.91406C30.1074 7.91211 25.9688 7.91016 21.8301 7.91602Z" fill="#FF6B00"/>
<path d="M45.0566 7.8652C46.2168 7.87692 47.375 7.8359 48.5351 7.89059C48.4883 21.9257 48.5273 35.9629 48.5156 50H7.98827C6.85351 49.7558 5.75194 48.8906 5.69921 47.6523C5.66405 44.1699 5.69335 40.6855 5.68554 37.2011C6.83788 36.5097 7.99022 35.8144 9.14061 35.1211C21.1133 35.1172 33.0859 35.1328 45.0586 35.1132C45.0547 26.0312 45.0586 16.9472 45.0566 7.8652ZM31.8437 38.8789C30.6758 39.5 30.541 41.4375 31.6699 42.1543C32.5019 42.6523 33.4922 42.7715 34.3672 43.1718C34.9141 43.3691 34.9609 44.1894 34.5527 44.5429C33.7422 45.0254 32.3945 44.7148 32.3691 43.6191C31.8027 43.6191 31.2383 43.6211 30.6719 43.6191C30.7129 44.2578 30.9277 44.914 31.4258 45.3457C32.2207 46.0761 33.3848 46.1406 34.4062 46.0332C35.3652 45.9336 36.3926 45.3437 36.5976 44.334C36.707 43.6093 36.6699 42.7343 36.0469 42.2422C35.1914 41.5371 34.0137 41.5 33.0586 40.9863C32.6308 40.7871 32.6074 40.0918 33.0058 39.8554C33.7285 39.4375 34.8476 39.7558 34.9277 40.6875C35.4863 40.6914 36.0469 40.6914 36.6055 40.6875C36.5586 39.8554 36.0879 39.041 35.291 38.7265C34.2012 38.291 32.8828 38.3086 31.8437 38.8789ZM17.9922 38.5976C18.0254 41.0429 18 43.4902 18.0058 45.9355C18.6074 45.9355 19.209 45.9355 19.8105 45.9531C19.8769 44.9492 19.8164 43.9453 19.8437 42.9414C20.6445 42.9433 21.4453 42.9433 22.2461 42.9414C22.2461 42.5097 22.2461 42.08 22.2441 41.6504C21.4414 41.6523 20.6406 41.6523 19.8379 41.6523C19.8437 41.08 19.8418 40.5058 19.8223 39.9355C20.7812 39.8828 21.7422 39.9238 22.7031 39.9101C22.7031 39.4668 22.7031 39.0234 22.7051 38.582C21.1328 38.5898 19.5625 38.5586 17.9922 38.5976ZM23.6406 38.5898C23.707 40.5 23.5488 42.4238 23.7285 44.3281C24.0723 46.1718 26.6328 46.6211 27.873 45.4062C27.9238 45.582 27.9765 45.7578 28.0332 45.9336C28.5469 45.9355 29.0605 45.9355 29.5742 45.957C29.6562 43.5 29.6016 41.0351 29.5996 38.5761C28.9883 38.582 28.3769 38.58 27.7656 38.5976C27.7969 40.3164 27.7656 42.0351 27.7832 43.7558C27.9453 44.9785 25.5683 45.1914 25.498 43.9218C25.4433 42.1445 25.4883 40.3632 25.4766 38.5859C24.8652 38.58 24.2539 38.58 23.6406 38.5898Z" fill="#933C00"/>
<path d="M21.8301 7.91602C25.9688 7.91016 30.1074 7.91211 34.2441 7.91406C34.2422 9.07813 34.2422 10.2441 34.2441 11.4082C31.7227 11.4219 29.1992 11.3809 26.6777 11.4277C26.707 12.9687 26.6816 14.5078 26.6934 16.0469C28.8145 16.043 30.9336 16.0605 33.0547 16.0371C33.0938 17.1875 33.082 18.3418 33.0625 19.4922C30.9375 19.4707 28.8145 19.4883 26.6914 19.4844C26.6934 22.0957 26.6855 24.707 26.6973 27.3164C25.0762 27.334 23.4551 27.3203 21.834 27.3242C21.8301 20.8555 21.8359 14.3848 21.8301 7.91602Z" fill="white"/>
<path d="M31.8438 38.8789C32.8828 38.3086 34.2012 38.291 35.291 38.7266C36.0879 39.041 36.5586 39.8555 36.6055 40.6875C36.0469 40.6914 35.4863 40.6914 34.9277 40.6875C34.8477 39.7559 33.7285 39.4375 33.0059 39.8555C32.6074 40.0918 32.6309 40.7871 33.0586 40.9863C34.0137 41.5 35.1914 41.5371 36.0469 42.2422C36.6699 42.7344 36.707 43.6094 36.5977 44.334C36.3926 45.3438 35.3652 45.9336 34.4063 46.0332C33.3848 46.1406 32.2207 46.0762 31.4258 45.3457C30.9277 44.9141 30.7129 44.2578 30.6719 43.6192C31.2383 43.6211 31.8027 43.6192 32.3691 43.6192C32.3945 44.7149 33.7422 45.0254 34.5527 44.543C34.9609 44.1895 34.9141 43.3692 34.3672 43.1719C33.4922 42.7715 32.502 42.6524 31.6699 42.1543C30.541 41.4375 30.6758 39.5 31.8438 38.8789Z" fill="white"/>
<path d="M17.9922 38.5976C19.5625 38.5586 21.1328 38.5898 22.7051 38.582C22.7031 39.0234 22.7031 39.4668 22.7031 39.9101C21.7422 39.9238 20.7812 39.8828 19.8223 39.9355C19.8418 40.5058 19.8437 41.0801 19.8379 41.6523C20.6406 41.6523 21.4414 41.6523 22.2441 41.6504C22.2461 42.0801 22.2461 42.5098 22.2461 42.9414C21.4453 42.9433 20.6445 42.9433 19.8437 42.9414C19.8164 43.9453 19.877 44.9492 19.8105 45.9531C19.209 45.9355 18.6074 45.9355 18.0059 45.9355C18 43.4902 18.0254 41.043 17.9922 38.5976Z" fill="white"/>
<path d="M23.6406 38.5898C24.2539 38.5801 24.8652 38.5801 25.4766 38.5859C25.4883 40.3633 25.4434 42.1445 25.498 43.9219C25.5684 45.1914 27.9453 44.9785 27.7832 43.7559C27.7656 42.0352 27.7969 40.3164 27.7656 38.5977C28.3769 38.5801 28.9883 38.582 29.5996 38.5762C29.6016 41.0352 29.6562 43.5 29.5742 45.957C29.0605 45.9355 28.5469 45.9355 28.0332 45.9336C27.9766 45.7578 27.9238 45.582 27.873 45.4062C26.6328 46.6211 24.0723 46.1719 23.7285 44.3281C23.5488 42.4238 23.707 40.5 23.6406 38.5898Z" fill="white"/>
</g>
<defs>
<clipPath id="clip0_1035_2132">
<rect width="50" height="50" fill="white"/>
</clipPath>
</defs>
</svg>
