<svg width="52" height="50" viewBox="0 0 52 50" fill="none" xmlns="http://www.w3.org/2000/svg">
<path d="M9.0812 0H42.2009C47.2222 0 51.2821 4.05983 51.2821 9.0812V40.9188C51.2821 45.9402 47.2222 50 42.2009 50H9.0812C4.05983 50 0 45.9402 0 40.9188V9.0812C0 4.05983 4.05983 0 9.0812 0Z" fill="#330000"/>
<path d="M24.8504 29.9999H16.9017L15.2778 35.0213C15.2351 35.2136 15.0641 35.3418 14.8718 35.3204H10.8547C10.6197 35.3204 10.5556 35.1922 10.6197 34.9358L17.5 15.1281C17.5641 14.9145 17.6282 14.6794 17.7137 14.423C17.7992 13.9743 17.8419 13.5042 17.8419 13.0341C17.8205 12.9273 17.906 12.8204 18.0128 12.7991C18.0342 12.7991 18.0556 12.7991 18.0769 12.7991H23.547C23.718 12.7991 23.8034 12.8632 23.8248 12.97L31.624 34.9786C31.6881 35.2136 31.624 35.3204 31.4103 35.3204H26.9445C26.7949 35.3418 26.6453 35.235 26.6026 35.0854L24.8504 29.9999ZM18.141 25.6623H23.5684C23.4402 25.2136 23.2692 24.6794 23.0769 24.1239C22.8846 23.5469 22.6923 22.9273 22.5 22.2863C22.2863 21.6239 22.094 20.9828 21.8804 20.3204C21.6667 19.658 21.4744 19.0384 21.3034 18.4187C21.1325 17.8204 20.9829 17.2649 20.8334 16.7521H20.7906C20.5983 17.6709 20.3633 18.5897 20.0641 19.5085C19.7436 20.5341 19.4231 21.6025 19.0812 22.6709C18.7821 23.7606 18.4616 24.7649 18.141 25.6623Z" fill="#FF9A00"/>
<path d="M36.2821 16.453C35.577 16.4743 34.8932 16.1966 34.3804 15.7051C33.8889 15.1709 33.6325 14.4658 33.6539 13.7393C33.6325 13.0128 33.9103 12.329 34.4231 11.8376C34.9359 11.3461 35.6197 11.0897 36.3248 11.0897C37.1582 11.0897 37.7992 11.3461 38.2693 11.8376C38.7394 12.3504 38.9958 13.0342 38.9744 13.7393C38.9958 14.4658 38.7394 15.1709 38.2265 15.7051C37.7351 16.2179 37.0086 16.4957 36.2821 16.453ZM33.8889 35V18.547C33.8889 18.3333 33.9744 18.2478 34.1667 18.2478H38.3975C38.5898 18.2478 38.6753 18.3547 38.6753 18.547V35C38.6753 35.235 38.5898 35.3419 38.3975 35.3419H34.2094C33.9958 35.3419 33.8889 35.2137 33.8889 35Z" fill="#FF9A00"/>
</svg>
