<svg width="52" height="50" viewBox="0 0 52 50" fill="none" xmlns="http://www.w3.org/2000/svg">
<path d="M9.0812 0H42.2009C47.2222 0 51.2821 4.05983 51.2821 9.0812V40.9188C51.2821 45.9402 47.2222 50 42.2009 50H9.0812C4.05983 50 0 45.9402 0 40.9188V9.0812C0 4.05983 4.05983 0 9.0812 0Z" fill="#001E36"/>
<path d="M11.5385 35.0641V13.0769C11.5385 12.9273 11.6026 12.8418 11.7521 12.8418C12.1154 12.8418 12.4573 12.8418 12.9487 12.8205C13.4615 12.7991 13.9957 12.7991 14.5726 12.7777C15.1496 12.7564 15.7692 12.7564 16.4316 12.735C17.094 12.7136 17.735 12.7136 18.3761 12.7136C20.1282 12.7136 21.5812 12.9273 22.7778 13.376C23.8462 13.7393 24.8291 14.3376 25.641 15.1282C26.3248 15.8119 26.859 16.6452 27.2009 17.564C27.5214 18.4615 27.6923 19.3803 27.6923 20.3418C27.6923 22.1794 27.265 23.6965 26.4103 24.8931C25.5556 26.0897 24.359 26.9871 22.9701 27.4999C21.5171 28.0341 19.9145 28.2264 18.1624 28.2264C17.6496 28.2264 17.3077 28.2264 17.094 28.2051C16.8803 28.1837 16.5812 28.1837 16.1752 28.1837V35.0427C16.1966 35.1923 16.0897 35.3205 15.9402 35.3418C15.9188 35.3418 15.8974 35.3418 15.8547 35.3418H11.7949C11.6239 35.3418 11.5385 35.2564 11.5385 35.0641ZM16.1966 16.9658V24.1452C16.4957 24.1666 16.7735 24.188 17.0299 24.188H18.1624C18.9957 24.188 19.8291 24.0598 20.6197 23.8034C21.3034 23.6111 21.9017 23.2051 22.3718 22.6709C22.8205 22.1367 23.0342 21.4102 23.0342 20.47C23.0556 19.8076 22.8846 19.1452 22.5427 18.5683C22.1795 18.0128 21.6667 17.5854 21.047 17.3504C20.2564 17.0299 19.4017 16.9017 18.5256 16.923C17.9701 16.923 17.4786 16.923 17.0726 16.9444C16.6453 16.923 16.3462 16.9444 16.1966 16.9658Z" fill="#31A8FF"/>
<path d="M41.0256 22.8419C40.3846 22.5 39.7008 22.265 38.9744 22.1154C38.1838 21.9444 37.3932 21.8376 36.5812 21.8376C36.1538 21.8162 35.7051 21.8803 35.2991 21.9872C35.0214 22.0513 34.7863 22.2009 34.6367 22.4145C34.5299 22.5855 34.4658 22.7991 34.4658 22.9914C34.4658 23.1838 34.5513 23.3761 34.6795 23.547C34.8718 23.782 35.1282 23.9744 35.406 24.1239C35.8974 24.3803 36.4103 24.6154 36.9231 24.8291C38.0769 25.2137 39.188 25.7479 40.2137 26.3889C40.9188 26.8376 41.4957 27.4359 41.9017 28.1624C42.2436 28.8462 42.4145 29.594 42.3932 30.3632C42.4145 31.3675 42.1154 32.3718 41.5598 33.2051C40.9615 34.0598 40.1282 34.7222 39.1667 35.1068C38.1197 35.5556 36.8376 35.7906 35.2991 35.7906C34.3162 35.7906 33.3547 35.7051 32.3932 35.5128C31.6453 35.3846 30.8974 35.1496 30.2137 34.8291C30.0641 34.7436 29.9573 34.594 29.9786 34.4231V30.7051C29.9786 30.641 30 30.5556 30.0641 30.5128C30.1282 30.4701 30.1923 30.4914 30.2564 30.5342C31.0897 31.0256 31.9658 31.3675 32.906 31.5812C33.7179 31.7949 34.5726 31.9017 35.4273 31.9017C36.2393 31.9017 36.8162 31.7949 37.2009 31.6026C37.5427 31.453 37.7778 31.0897 37.7778 30.7051C37.7778 30.406 37.6068 30.1282 37.265 29.8504C36.9231 29.5726 36.2179 29.2521 35.1709 28.8462C34.0812 28.4615 33.0769 27.9487 32.1367 27.3077C31.4744 26.8376 30.9188 26.2179 30.5128 25.4914C30.1709 24.8077 30 24.0598 30.0214 23.312C30.0214 22.3932 30.2778 21.5171 30.7479 20.7265C31.282 19.8718 32.0726 19.188 32.9914 18.7607C33.9957 18.2479 35.2564 18.0128 36.7735 18.0128C37.6496 18.0128 38.547 18.0769 39.4231 18.2051C40.0641 18.2906 40.6838 18.4615 41.2607 18.6966C41.3462 18.7179 41.4316 18.8034 41.4744 18.8889C41.4957 18.9744 41.5171 19.0598 41.5171 19.1453V22.6282C41.5171 22.7137 41.4744 22.7991 41.4103 22.8419C41.2179 22.8846 41.1111 22.8846 41.0256 22.8419Z" fill="#31A8FF"/>
</svg>
