<svg width="48" height="50" viewBox="0 0 48 50" fill="none" xmlns="http://www.w3.org/2000/svg">
<g clip-path="url(#clip0_1035_4285)">
<path d="M23.6841 21.0526H39.4736C43.8337 21.0526 47.3683 24.5872 47.3683 28.9473V42.1052C47.3683 46.4654 43.8337 50 39.4736 50C35.1134 50 31.5788 46.4654 31.5788 42.1052V28.9473C31.5788 24.5872 28.0442 21.0526 23.6841 21.0526Z" fill="url(#paint0_radial_1035_4285)"/>
<path d="M5.263 26.3158C5.263 21.9556 8.79763 18.421 13.1578 18.421H23.6841C28.0442 18.421 31.5788 21.9556 31.5788 26.3158V42.1052C31.5788 46.4654 35.1134 50 39.4736 50L18.4208 49.9998C11.1539 49.9998 5.263 44.1089 5.263 36.8419V26.3158Z" fill="url(#paint1_radial_1035_4285)"/>
<path d="M5.263 26.3158C5.263 21.9556 8.79763 18.421 13.1578 18.421H23.6841C28.0442 18.421 31.5788 21.9556 31.5788 26.3158V42.1052C31.5788 46.4654 35.1134 50 39.4736 50L18.4208 49.9998C11.1539 49.9998 5.263 44.1089 5.263 36.8419V26.3158Z" fill="url(#paint2_linear_1035_4285)" fill-opacity="0.7"/>
<path d="M5.263 26.3158C5.263 21.9556 8.79763 18.421 13.1578 18.421H23.6841C28.0442 18.421 31.5788 21.9556 31.5788 26.3158V42.1052C31.5788 46.4654 35.1134 50 39.4736 50L18.4208 49.9998C11.1539 49.9998 5.263 44.1089 5.263 36.8419V26.3158Z" fill="url(#paint3_radial_1035_4285)" fill-opacity="0.7"/>
<path d="M38.1577 18.4211C41.7912 18.4211 44.7367 15.4756 44.7367 11.8421C44.7367 8.20871 41.7912 5.26318 38.1577 5.26318C34.5243 5.26318 31.5788 8.20871 31.5788 11.8421C31.5788 15.4756 34.5243 18.4211 38.1577 18.4211Z" fill="url(#paint4_radial_1035_4285)"/>
<path d="M38.1577 18.4211C41.7912 18.4211 44.7367 15.4756 44.7367 11.8421C44.7367 8.20871 41.7912 5.26318 38.1577 5.26318C34.5243 5.26318 31.5788 8.20871 31.5788 11.8421C31.5788 15.4756 34.5243 18.4211 38.1577 18.4211Z" fill="url(#paint5_radial_1035_4285)" fill-opacity="0.46"/>
<path d="M38.1577 18.4211C41.7912 18.4211 44.7367 15.4756 44.7367 11.8421C44.7367 8.20871 41.7912 5.26318 38.1577 5.26318C34.5243 5.26318 31.5788 8.20871 31.5788 11.8421C31.5788 15.4756 34.5243 18.4211 38.1577 18.4211Z" fill="url(#paint6_radial_1035_4285)" fill-opacity="0.4"/>
<path d="M18.4209 15.7895C22.7811 15.7895 26.3157 12.2549 26.3157 7.89474C26.3157 3.53459 22.7811 0 18.4209 0C14.0608 0 10.5262 3.53459 10.5262 7.89474C10.5262 12.2549 14.0608 15.7895 18.4209 15.7895Z" fill="url(#paint7_radial_1035_4285)"/>
<path d="M18.4209 15.7895C22.7811 15.7895 26.3157 12.2549 26.3157 7.89474C26.3157 3.53459 22.7811 0 18.4209 0C14.0608 0 10.5262 3.53459 10.5262 7.89474C10.5262 12.2549 14.0608 15.7895 18.4209 15.7895Z" fill="url(#paint8_radial_1035_4285)" fill-opacity="0.6"/>
<path d="M18.4209 15.7895C22.7811 15.7895 26.3157 12.2549 26.3157 7.89474C26.3157 3.53459 22.7811 0 18.4209 0C14.0608 0 10.5262 3.53459 10.5262 7.89474C10.5262 12.2549 14.0608 15.7895 18.4209 15.7895Z" fill="url(#paint9_radial_1035_4285)" fill-opacity="0.5"/>
<path d="M16.7763 25H4.27632C1.91457 25 0 26.9146 0 29.2763V41.7763C0 44.1381 1.91457 46.0526 4.27632 46.0526H16.7763C19.1381 46.0526 21.0526 44.1381 21.0526 41.7763V29.2763C21.0526 26.9146 19.1381 25 16.7763 25Z" fill="url(#paint10_radial_1035_4285)"/>
<path d="M16.7763 25H4.27632C1.91457 25 0 26.9146 0 29.2763V41.7763C0 44.1381 1.91457 46.0526 4.27632 46.0526H16.7763C19.1381 46.0526 21.0526 44.1381 21.0526 41.7763V29.2763C21.0526 26.9146 19.1381 25 16.7763 25Z" fill="url(#paint11_radial_1035_4285)" fill-opacity="0.7"/>
<path d="M15.1042 31.7177H11.8844V41.5414H9.16752V31.7177H5.94757V29.5114H15.1042V31.7177Z" fill="white"/>
</g>
<defs>
<radialGradient id="paint0_radial_1035_4285" cx="0" cy="0" r="1" gradientUnits="userSpaceOnUse" gradientTransform="translate(47.1009 23.913) scale(17.7347 43.7755)">
<stop stop-color="#A98AFF"/>
<stop offset="0.14" stop-color="#8C75FF"/>
<stop offset="0.565" stop-color="#5F50E2"/>
<stop offset="0.9" stop-color="#3C2CB8"/>
</radialGradient>
<radialGradient id="paint1_radial_1035_4285" cx="0" cy="0" r="1" gradientUnits="userSpaceOnUse" gradientTransform="translate(6.33208 16.3158) rotate(68.1539) scale(43.0947 43.583)">
<stop stop-color="#85C2FF"/>
<stop offset="0.69" stop-color="#7588FF"/>
<stop offset="1" stop-color="#6459FE"/>
</radialGradient>
<linearGradient id="paint2_linear_1035_4285" x1="21.8337" y1="18.421" x2="21.8337" y2="50" gradientUnits="userSpaceOnUse">
<stop offset="0.801159" stop-color="#6864F6" stop-opacity="0"/>
<stop offset="1" stop-color="#5149DE"/>
</linearGradient>
<radialGradient id="paint3_radial_1035_4285" cx="0" cy="0" r="1" gradientUnits="userSpaceOnUse" gradientTransform="translate(30.9209 17.3684) rotate(113.326) scale(25.2876 20.2991)">
<stop stop-color="#BD96FF"/>
<stop offset="0.686685" stop-color="#BD96FF" stop-opacity="0"/>
</radialGradient>
<radialGradient id="paint4_radial_1035_4285" cx="0" cy="0" r="1" gradientUnits="userSpaceOnUse" gradientTransform="translate(38.1577 9.96239) rotate(-90) scale(13.1579 16.6074)">
<stop offset="0.268201" stop-color="#6868F7"/>
<stop offset="1" stop-color="#3923B1"/>
</radialGradient>
<radialGradient id="paint5_radial_1035_4285" cx="0" cy="0" r="1" gradientUnits="userSpaceOnUse" gradientTransform="translate(32.7204 8.61055) rotate(40.0516) scale(9.40301 13.6004)">
<stop offset="0.270711" stop-color="#A1D3FF"/>
<stop offset="0.813393" stop-color="#A1D3FF" stop-opacity="0"/>
</radialGradient>
<radialGradient id="paint6_radial_1035_4285" cx="0" cy="0" r="1" gradientUnits="userSpaceOnUse" gradientTransform="translate(43.3975 8.37976) rotate(-41.6581) scale(11.201 27.4768)">
<stop stop-color="#E3ACFD"/>
<stop offset="0.816041" stop-color="#9FA2FF" stop-opacity="0"/>
</radialGradient>
<radialGradient id="paint7_radial_1035_4285" cx="0" cy="0" r="1" gradientUnits="userSpaceOnUse" gradientTransform="translate(18.4209 5.63909) rotate(-90) scale(15.7895 19.9289)">
<stop offset="0.268201" stop-color="#8282FF"/>
<stop offset="1" stop-color="#3923B1"/>
</radialGradient>
<radialGradient id="paint8_radial_1035_4285" cx="0" cy="0" r="1" gradientUnits="userSpaceOnUse" gradientTransform="translate(11.8962 4.01689) rotate(40.0516) scale(11.2836 16.3204)">
<stop offset="0.270711" stop-color="#A1D3FF"/>
<stop offset="0.813393" stop-color="#A1D3FF" stop-opacity="0"/>
</radialGradient>
<radialGradient id="paint9_radial_1035_4285" cx="0" cy="0" r="1" gradientUnits="userSpaceOnUse" gradientTransform="translate(24.7087 3.73987) rotate(-41.6581) scale(13.4412 32.9722)">
<stop stop-color="#E3ACFD"/>
<stop offset="0.816041" stop-color="#9FA2FF" stop-opacity="0"/>
</radialGradient>
<radialGradient id="paint10_radial_1035_4285" cx="0" cy="0" r="1" gradientUnits="userSpaceOnUse" gradientTransform="translate(0 25) rotate(45) scale(29.7729)">
<stop offset="0.046875" stop-color="#688EFF"/>
<stop offset="0.946875" stop-color="#230F94"/>
</radialGradient>
<radialGradient id="paint11_radial_1035_4285" cx="0" cy="0" r="1" gradientUnits="userSpaceOnUse" gradientTransform="translate(10.5263 37.6316) rotate(90) scale(14.7368 17.1976)">
<stop offset="0.570647" stop-color="#6965F6" stop-opacity="0"/>
<stop offset="1" stop-color="#8F8FFF"/>
</radialGradient>
<clipPath id="clip0_1035_4285">
<rect width="47.3684" height="50" fill="white"/>
</clipPath>
</defs>
</svg>
