<?xml version="1.0" encoding="UTF-8"?>
<svg id="Camada_2" data-name="Camada 2" xmlns="http://www.w3.org/2000/svg" width="24" height="24" viewBox="0 0 24 24">
  <defs>
    <style>
      .cls-1 {
        stroke-width: 0px;
      }

      .cls-1, .cls-2, .cls-3 {
        fill: none;
      }

      .cls-2 {
        stroke: #141515;
        stroke-width: 3px;
      }

      .cls-2, .cls-3 {
        stroke-linecap: round;
        stroke-linejoin: round;
      }

      .cls-3 {
        stroke: #fff;
        stroke-width: 1.5px;
      }
    </style>
  </defs>
  <g id="Camada_1-2" data-name="Camada 1">
    <g>
      <g>
        <path class="cls-2" d="M17.35,9.77v-2.23c0-.99-.8-1.79-1.78-1.79s-1.78.8-1.78,1.79v1.25"/>
        <path class="cls-2" d="M13.78,8.43v-1.78c0-.99-.8-1.79-1.78-1.79s-1.78.8-1.78,1.79v1.78"/>
        <path class="cls-2" d="M10.22,8.34v-.8c0-.99-.8-1.79-1.78-1.79s-1.78.8-1.78,1.79v4.46"/>
        <path class="cls-2" d="M6.65,12c0-.99-.8-1.78-1.78-1.78s-1.78.8-1.78,1.78"/>
        <path class="cls-2" d="M17.35,9.32c0-.99.8-1.78,1.79-1.78s1.78.8,1.78,1.78v2.68c0,3.94-3.2,7.14-7.14,7.14h-3.57c-3.94,0-7.14-3.2-7.14-7.14,0-.99.8-1.78,1.78-1.78s1.78.8,1.78,1.78"/>
      </g>
      <g>
        <path class="cls-3" d="M17.35,9.77v-2.23c0-.99-.8-1.79-1.78-1.79s-1.78.8-1.78,1.79v1.25"/>
        <path class="cls-3" d="M13.78,8.43v-1.78c0-.99-.8-1.79-1.78-1.79s-1.78.8-1.78,1.79v1.78"/>
        <path class="cls-3" d="M10.22,8.34v-.8c0-.99-.8-1.79-1.78-1.79s-1.78.8-1.78,1.79v4.46"/>
        <path class="cls-3" d="M6.65,12c0-.99-.8-1.78-1.78-1.78s-1.78.8-1.78,1.78"/>
        <path class="cls-3" d="M17.35,9.32c0-.99.8-1.78,1.79-1.78s1.78.8,1.78,1.78v2.68c0,3.94-3.2,7.14-7.14,7.14h-3.57c-3.94,0-7.14-3.2-7.14-7.14,0-.99.8-1.78,1.78-1.78s1.78.8,1.78,1.78"/>
      </g>
    </g>
    <rect class="cls-1" width="24" height="24"/>
  </g>
</svg>